<svg xmlns="http://www.w3.org/2000/svg" width="168.125" height="50.781" viewBox="0 0 168.125 50.781">
    <path d="M69.24 38.781h5.08a.358.358 0 0 0 .44-.36.456.456 0 0 0-.04-.2l-8.64-27.04a.5.5 0 0 0-.52-.4h-6.28a.5.5 0 0 0-.52.4l-8.64 27.04a.436.436 0 0 0 .04.42.446.446 0 0 0 .36.14h5.08a.5.5 0 0 0 .52-.4l1.16-3.92a.235.235 0 0 1 .2-.16h9.84a.236.236 0 0 1 .2.16l1.2 3.92a.5.5 0 0 0 .52.4zm-10.52-9.08l3.52-11.88a.186.186 0 0 1 .12-.14c.053-.013.093.034.12.14l3.6 11.88c.053.16 0 .24-.16.24h-7.04c-.134 0-.187-.08-.16-.24zm34.568-18.44l.04 16.8a.128.128 0 1 1-.24.08l-10.32-17.04a.574.574 0 0 0-.56-.32h-4.52a.478.478 0 0 0-.48.48v27.04a.478.478 0 0 0 .48.48h4.68a.478.478 0 0 0 .48-.48l-.08-16.88a.159.159 0 0 1 .08-.18.161.161 0 0 1 .16.1l10.36 17.12a.571.571 0 0 0 .56.32h4.52a.478.478 0 0 0 .48-.48v-27.04a.478.478 0 0 0-.48-.48h-4.68a.478.478 0 0 0-.48.48zm28.988-.48h-20.16a.478.478 0 0 0-.48.48v3.92a.478.478 0 0 0 .48.48h6.96a.177.177 0 0 1 .2.2v22.44a.478.478 0 0 0 .48.48h4.68a.478.478 0 0 0 .48-.48v-22.44a.177.177 0 0 1 .2-.2h7.16a.478.478 0 0 0 .48-.48v-3.92a.478.478 0 0 0-.48-.48zm21.848 4.36v-3.88a.478.478 0 0 0-.48-.48h-18.48a.478.478 0 0 0-.48.48v27.04a.478.478 0 0 0 .48.48h18.48a.478.478 0 0 0 .48-.48v-3.88a.478.478 0 0 0-.48-.48h-13.12a.176.176 0 0 1-.2-.2v-6.48a.177.177 0 0 1 .2-.2h8.6a.478.478 0 0 0 .48-.48v-3.88a.478.478 0 0 0-.48-.48h-8.6a.176.176 0 0 1-.2-.2v-6.2a.177.177 0 0 1 .2-.2h13.12a.478.478 0 0 0 .48-.48zm2.6 23.64h4.68a.478.478 0 0 0 .48-.48v-7.96a.606.606 0 0 1 .08-.24l2.52-3.16a.23.23 0 0 1 .16-.08.129.129 0 0 1 .12.08l7.12 11.52a.571.571 0 0 0 .56.32h5.28c.266 0 .4-.093.4-.28a1.729 1.729 0 0 0-.08-.28l-9.44-15.16a.229.229 0 0 1 .04-.28l8.92-11.4a.432.432 0 0 0 .08-.42.392.392 0 0 0-.4-.18h-5.28a.759.759 0 0 0-.6.28l-9.24 11.48a.164.164 0 0 1-.16.06.121.121 0 0 1-.08-.14v-11.2a.478.478 0 0 0-.484-.48h-4.68a.478.478 0 0 0-.48.48v27.04a.478.478 0 0 0 .48.48z" fill="#222" fill-rule="evenodd"/>
    <path d="M15.7.818a19.714 19.714 0 0 1 15.937 2.1A20.464 20.464 0 0 1 40 12.772c-2.569 0-5.137.012-7.7-.008a13.268 13.268 0 0 0-6.229-5 13.433 13.433 0 0 0-8.162-.357 13.92 13.92 0 0 0-9.648 15.074.9.9 0 0 1-.113.679c-1.35 2.746-2.661 5.516-4.022 8.256A21.808 21.808 0 0 1 5.432 8.197 19.7 19.7 0 0 1 15.7.818zM0 50.781c6.852-14.058 13.633-28.939 20.5-42.99q4.7 9.792 9.435 19.568h-7.066q-1.188-2.472-2.379-4.945-2.594 5.334-5.173 10.677a13.6 13.6 0 0 0 7.872 1.443 12.319 12.319 0 0 0 6.372-2.706.737.737 0 0 1 .488-.235c2.9-.013 5.8.024 8.7-.018a20.494 20.494 0 0 1-8.594 8.011 19.651 19.651 0 0 1-17.837-.3c-1.631 3.366-3.316 6.7-4.954 10.064-.113.213-.262 1.218-.364 1.436H0z" fill="#edb509" fill-rule="evenodd"/>
    <path data-name="logo" d="M26.079 43.49c2.31-.008 4.62.011 6.929-.011 1.094 2.151 1.921 5.138 2.992 7.3-2.025.009-3.975-.03-6 0-.305-.016-.7-.007-1 0-.019-.024.146-.86.127-.884-1-2.144-2.044-4.264-3.048-6.406z" fill="#222" fill-rule="evenodd"/>
</svg>
