<?xml version="1.0" encoding="utf-8"?>
<!-- Generator: Adobe Illustrator 25.0.0, SVG Export Plug-In . SVG Version: 6.00 Build 0)  -->
<svg version="1.1" id="Layer_1" xmlns="http://www.w3.org/2000/svg" xmlns:xlink="http://www.w3.org/1999/xlink" x="0px" y="0px"
	 viewBox="0 0 175.723 47.114" style="enable-background:new 0 0 175.723 47.114;" xml:space="preserve">
<style type="text/css">
	.st0{fill-rule:evenodd;clip-rule:evenodd;fill:#231F20;}
</style>
<g>
	<path class="st0" d="M67.98,25.446c-0.895,0-1.789,0-1.789,0v-7.057c2.087,0,3.976-0.099,3.976,2.485
		C70.166,22.962,70.266,25.446,67.98,25.446L67.98,25.446L67.98,25.446z M58.637,44.927h11.43c8.15,0,8.15-7.753,8.15-10.337
		c0-0.397,0-5.367-4.174-6.659c3.677-2.087,3.379-6.461,3.379-8.548c0-0.199,0-6.659-7.256-6.659h-11.53V44.927L58.637,44.927
		L58.637,44.927z M66.191,39.163v-8.25c2.982,0.099,4.274,0,4.274,3.876C70.465,39.262,69.471,39.163,66.191,39.163L66.191,39.163z"
		/>
	<path class="st0" d="M88.356,23.657c1.392,0,1.392,1.789,1.392,2.385V37.97c0,0.696,0,2.386-1.392,2.386
		c-1.491,0-1.491-1.69-1.491-2.286V25.943C86.865,25.446,86.865,23.657,88.356,23.657L88.356,23.657L88.356,23.657z M88.455,45.524
		c8.449,0,8.449-6.759,8.449-7.455V27.434c0-2.584,0-8.647-8.449-8.647c-8.647,0-8.647,6.063-8.647,7.554v11.729
		C79.808,39.262,79.808,45.524,88.455,45.524L88.455,45.524z"/>
	<path class="st0" d="M157.136,19.483h1.391v-5.367h7.057v5.367h1.888v5.169h-1.888v12.822c0,2.584,0.397,2.385,1.988,2.584v4.97
		c-0.795,0.397-2.684,0.397-3.678,0.397c-1.888,0-5.367-0.497-5.367-5.268V24.651h-1.391V19.483L157.136,19.483z"/>
	<path class="st0" d="M108.135,24.353c1.093,0,1.093,1.392,1.093,2.087v11.53c0,1.59-0.398,2.187-1.093,2.187
		c-0.895,0-1.69-0.994-1.69-3.379v-9.343C106.445,26.341,106.843,24.353,108.135,24.353L108.135,24.353L108.135,24.353z
		 M99.289,44.927h6.958v-2.385c0.497,0.994,2.087,2.982,4.97,2.982c5.168,0,5.268-5.168,5.268-8.25V25.446
		c0-1.392,0-6.659-5.169-6.659c-2.485,0-4.174,2.087-4.97,3.379v-9.442h-7.057V44.927L99.289,44.927z"/>
	<path class="st0" d="M135.866,29.025h-6.957v-3.28c0,0,0-1.988-1.491-1.988c-1.392,0-1.392,1.888-1.392,3.379v10.138
		c0,1.69,0,3.379,1.392,3.379c1.491,0,1.491-1.491,1.491-3.379v-3.379h6.957c-0.099,5.467,0.696,11.629-8.448,11.629
		c-8.548,0-8.647-6.56-8.647-9.244v-8.647c0-2.485,0-8.846,8.647-8.846C135.27,18.787,135.866,23.061,135.866,29.025L135.866,29.025
		z"/>
	<path class="st0" d="M145.109,35.585c0-1.988,1.59-2.584,2.982-3.578v4.473c0,2.286-0.199,3.18-1.69,3.18
		c-0.696,0-1.292-0.398-1.292-1.292V35.585L145.109,35.585L145.109,35.585z M148.091,44.927h6.958V26.043
		c0-5.069-4.274-6.957-8.448-6.957c-4.274,0-8.548,1.888-8.548,6.957v1.789h7.057v-2.187c0-0.994,0.298-1.888,1.491-1.888
		c1.193,0,1.491,0.895,1.491,1.888c0,4.671-10.039,3.876-10.039,10.536v3.876c0,3.28,1.888,5.168,4.97,5.168
		c2.783,0,4.075-1.491,4.97-3.28h0.099V44.927L148.091,44.927z"/>
	<path class="st0" d="M2.081,0.002c1.69,3.28,2.584,5.367,6.262,7.554c3.777,2.187,4.274,1.888,4.671,1.988
		c0.397,0.199,0.596,0.696,0.596,0.994c0.894,0,3.976-0.497,5.467-0.398c1.491,0.099,4.87,0.596,7.256,1.392
		c1.689,0.497,3.777,1.292,4.075,1.392c0.397,0.099,0.994,0.298,1.392-0.099c0.397-0.497-0.1-0.696,2.087-1.59
		c2.187-0.895,4.373-1.988,5.069-2.286c0.795-0.398,3.379-1.789,6.063-4.374c0.298-0.298,0.397-0.397,0.497-0.298
		c0.199,0.199,0.099,0.398,0,0.497c-0.696,1.888-2.385,5.268-2.883,6.063c-0.497,0.795-3.28,3.876-3.677,4.175
		c-0.398,0.397-1.888,1.689-1.888,1.689s-1.292,1.093-0.1,1.889c1.193,0.894,0.696,1.789-0.199,2.485
		c-0.895,0.596-3.181,2.087-5.169,1.888c-1.988-0.199-1.392,0-2.584-0.596c-0.398-0.199-0.994-0.199-0.696,0.199
		c0.199,0.298,0.1,0.497,0.1,0.497c-0.398,1.392-0.398,3.479-0.199,4.175c0.199,0.795,0.497,1.392,0.894,1.888
		c0.1,0.199,0.398,0.298-0.199,0.298c-0.497,0-0.596-0.099-0.994-0.397c-0.497-0.099-1.988-0.298-2.584,0.199
		c-0.596,0.497-0.199,0.298-1.491,0.596c-0.398,0.199-0.596,0.497,0,1.193c0.596,0.696,1.093,1.093,1.292,1.292
		c0.199,0.099,1.093,0.298-0.1,0.994c-1.093,0.696-2.385,1.59-5.168,1.392c-2.783-0.199-3.976-1.69-4.572-2.783
		c-0.497-0.994-0.298-1.491-2.286-1.491s-5.367,0.696-6.461,0.795c-1.888,0.298-1.491,0.596-2.882-0.497
		c-1.888-1.591-2.982-2.684-3.181-2.883c-0.199-0.199-0.795-0.398-0.298-1.491c0.398-0.994,1.193-2.882,3.081-5.268
		c1.988-2.386,2.385-2.883,3.081-3.379c1.491-1.193,0.795-1.292,2.385,0c1.292,0.994,2.584,1.988,3.479,2.485
		c0.894,0.397,1.093,0.497,1.69,1.888c0.596,1.491,1.193,2.584,1.392,2.982c0.199,0.398,1.59,1.59,2.783,1.69
		c1.889,0,3.479,0.099,4.672-1.292c0.497-1.292,0.795-2.286,1.491-2.982c0.298-0.298,0.398-0.596,0-0.596
		c-0.397,0-2.882-0.1-3.678-0.298c-0.795-0.199-7.057-2.187-7.951-2.584c-0.795-0.397-4.671-1.789-6.659-4.373
		c-1.988-2.684-2.187-3.479-3.18-7.057C2.081,4.773,2.081-0.098,2.081,0.002L2.081,0.002z"/>
	<path class="st0" d="M37.963,21.868c-0.099,0.696,0,6.162,1.193,7.653c0.398,0.298,0.596,0.696,0.199,0.696
		c-0.298,0.099-2.584,0-2.882,0c-0.199,0-0.596-0.099-0.596,0.596c0.099,0.895-0.099,2.584-1.59,3.181
		c-1.292,0.497-2.684,1.093-5.268-0.298c-0.795-0.696-0.994-0.895-1.093-0.994c-0.099-0.099-0.099-0.199,0-0.397
		c0.199-0.199,1.69-1.789,1.988-2.386c0.298-0.696,0.199-0.696,0-1.093c0.099,0.199-1.093-1.491,0-1.392
		c0.795,0.1,2.485,0.596,3.777,0c1.292-0.497,2.584-1.093,3.081-3.976c0.099-1.093,0.099-1.392,0.596-1.789
		C37.664,21.272,37.963,20.675,37.963,21.868L37.963,21.868z"/>
	<path class="st0" d="M40.348,31.708c1.392,0.696,3.578,1.988,4.075,3.18c0.199,0.298,0.298,0.994-0.298,0.199
		c-0.696-0.696-1.988-2.286-5.367-2.883c-0.895-0.099-2.087,0-1.988-0.795c0.099-0.398,0-0.795,1.392-0.497
		C39.354,31.31,40.348,31.708,40.348,31.708L40.348,31.708z"/>
	<path class="st0" d="M39.255,33.398c1.59,0.795,2.684,1.988,2.882,2.286c0.199,0.298,0.398,0.497,0.199,0.596
		c-0.298,0.199-0.398,0.099-0.696-0.199c-0.298-0.298-1.988-1.69-4.87-2.385c-0.497-0.199-0.795-0.398-0.298-0.795
		c0.497-0.398,0.497-0.298,0.994-0.099C37.963,32.901,39.155,33.398,39.255,33.398L39.255,33.398z"/>
	<path class="st0" d="M37.963,35.585c0.994,0.795,2.087,1.988,2.386,2.286c0.199,0.298,0.199,0.298-0.199,0.199
		c-0.397,0-0.994-0.795-1.491-1.093c-0.596-0.298-2.584-1.59-3.081-1.69c-0.497-0.199-0.696-0.298-0.298-0.696
		c0.298-0.397,0.298-0.298,0.596-0.199C36.273,34.59,37.963,35.585,37.963,35.585L37.963,35.585z"/>
	<path class="st0" d="M29.812,34.988c0.298,0.199,0.795,0.298,0.397,1.193c-0.298,0.894-0.596,1.491-1.59,2.286
		c-0.397,0.199-1.59,0.994-0.497-0.397c0.398-0.994,0.696-1.491,0.696-2.783c0-0.497-0.1-0.696,0.596-0.596
		C29.614,34.789,29.812,34.988,29.812,34.988L29.812,34.988z"/>
	<path class="st0" d="M21.265,40.256c0.497,1.093,1.292,2.087,2.385,2.087c1.491,0,2.584-0.795,3.081-1.491
		c0,0.795-0.199,1.193-0.397,1.491c-0.099,0.298-0.398,0.696-0.099,1.292c0.397,0.596,0.199,1.392,0,1.789
		c-0.1,0.497-0.497,1.69-2.385,1.69c-1.889,0-4.374,0-5.367-0.398c-0.696-0.298-0.994-0.099-0.895-1.59
		c0-1.292,0.199-2.087,0.298-2.684c0.099-0.497,0.298-0.696,1.093-0.696s0.696,0,0.994,0c0.298-0.099,0.397-0.199,0.397-0.596
		c0-0.398,0.1-1.093,0.298-1.591c0.298-0.397,0.398-0.298,0.398,0C21.165,39.759,21.265,40.256,21.265,40.256L21.265,40.256z"/>
	<path class="st0" d="M23.849,35.286c-0.199,0.895-0.696,2.684-1.392,3.578c-0.199-0.994-0.497-2.187-0.497-2.584
		c0-0.397-0.397-0.596,1.093-1.193C24.246,34.59,23.849,35.286,23.849,35.286L23.849,35.286z"/>
	<path class="st0" d="M8.343,39.66c0.696-0.994,4.671-4.175,5.168-4.373c0,0,0.596-0.398,1.193-0.596
		c1.193-0.298,1.193,0.398,0.795,0.895c-1.392,0.497-3.479,1.888-4.97,2.982c-1.093,0.795-2.783,2.485-3.28,3.181
		c-0.298,0.1-0.795,0-0.398-0.497C7.449,40.554,8.343,39.759,8.343,39.66L8.343,39.66z"/>
	<path class="st0" d="M4.069,37.672c3.181-2.684,5.666-3.479,8.051-4.175c1.193-0.298,2.286-0.497,2.584,0.1
		c0.099,0.398,0,0.596-0.398,0.696c-1.69,0-4.572,0.696-7.455,2.385c-1.193,0.696-2.584,1.789-3.081,2.286
		c-0.298,0.298-1.193,0-0.497-0.497C3.97,37.871,4.069,37.672,4.069,37.672L4.069,37.672z"/>
	<path class="st0" d="M3.374,33.994c2.684-1.392,4.672-1.889,6.56-2.286c0,0,2.584-0.497,3.777-0.199
		c0.895,1.193,0.298,1.093-0.397,1.093c-2.386,0-4.87,0.497-7.057,1.193c-2.286,0.696-4.87,2.087-5.765,2.485
		c-0.298,0.099-0.596,0.099-0.497-0.298c0.099-0.298,0.696-0.596,0.895-0.696C1.088,35.187,3.374,33.994,3.374,33.994L3.374,33.994z
		"/>
	<path class="st0" d="M172.84,44.629c-1.392,0-2.485-1.093-2.485-2.485c0-1.491,1.093-2.584,2.485-2.584
		c1.392,0,2.485,1.093,2.485,2.584C175.325,43.536,174.232,44.629,172.84,44.629L172.84,44.629z M172.84,45.027
		c1.591,0,2.883-1.292,2.883-2.883c0-1.69-1.292-2.982-2.883-2.982c-1.59,0-2.982,1.292-2.982,2.982
		C169.858,43.735,171.25,45.027,172.84,45.027L172.84,45.027z M173.337,42.244c0.596,0,0.994-0.298,0.994-0.895
		c0-0.497-0.298-0.895-1.193-0.895h-1.391v3.28h0.398v-1.491h0.696l0.994,1.491h0.497L173.337,42.244L173.337,42.244z
		 M172.145,41.946v-1.193h0.895c0.497,0,0.894,0.099,0.894,0.596c0,0.696-0.696,0.596-1.193,0.596H172.145L172.145,41.946z"/>
</g>
</svg>
