<?xml version="1.0" encoding="utf-8"?>
<!-- Generator: Adobe Illustrator 22.1.0, SVG Export Plug-In . SVG Version: 6.00 Build 0)  -->
<svg version="1.1" id="Layer_1" xmlns="http://www.w3.org/2000/svg" xmlns:xlink="http://www.w3.org/1999/xlink" x="0px" y="0px"
	 viewBox="0 0 2000 677" style="enable-background:new 0 0 2000 677;" xml:space="preserve">
<style type="text/css">
	.st0{fill:#FAA828;}
	.st1{fill:#211F20;}
	.st2{fill:#231F20;}
	.st3{fill:#FEFEFE;}
</style>
<path class="st0" d="M32.3,649.2C44,633.3,55,618.4,66,603.6c36.5-49.4,73.1-98.8,109.6-148.3c2.3-3.1,4.6-4.4,8.6-4.4
	c555.8,0.1,1111.5,0.1,1667.3-0.1c3.7,0,5.5,2.6,8.5,3.3c1.2,0.3,0.1,2.7-0.3,4.1c-6,23.4-12,46.7-18,70.1
	c-10.2,39.6-20.5,79.2-30.5,118.9c-1,3.9-2.6,4.8-6.4,4.8C1217.2,651.8,629.6,651.8,42,652C38.2,652,36.9,648.1,32.3,649.2z"/>
<path class="st1" d="M1694.4,388.9c-59.7,0-119.3-0.1-179,0.2c-3.5,0-5.5-2.4-8.6-2.9c-1.5-0.2,0-2.7,0.3-3.9
	c7.1-27.7,14.3-55.4,21.4-83c22.1-85.6,44.3-171.2,66.2-256.9c1.1-4.2,2.6-5.3,6.9-5.3c118.5,0.1,237,0.1,355.5-0.1
	c3.9,0,6.3,2.3,9.6,3c1.9,0.4,0.3,2.6,0,3.8c-5.7,22.4-11.5,44.8-17.3,67.1c-1.4,5.5-3.1,10.9-4.2,16.4c-0.6,3.5-2.3,4-5.4,4
	c-27.5-0.1-55-0.1-82.5-0.1c-46.8,0-93.7,0-140.5-0.1c-3.8,0-5.5,0.9-6.4,4.8c-2.8,11.3-6,22.5-9.4,33.6c-1.2,4-0.7,5.1,3.9,5.1
	c67.8-0.2,135.7-0.1,203.5-0.1c4.2,0,8.2,0,12,2.4c1.7,1.1,0.9,1.9,0.6,2.8c-5.8,23-11.7,46.1-17.5,69.1c-0.7,2.6-2.1,2.8-4.3,2.8
	c-13.5-0.1-27,0-40.5,0c-57.8,0-115.7,0.1-173.5-0.1c-4.1,0-5.7,1.1-6.6,5.1c-2.7,11.3-5.6,22.6-8.9,33.7c-1.2,4.2,0,4.5,3.7,4.5
	c72.7-0.1,145.3,0,218-0.2c3.5,0,5.7,2.1,8.7,2.6c1.6,0.2,0.8,1.9,0.5,3c-7.3,28.7-14.7,57.3-21.9,86c-0.9,3.4-3.1,2.7-5.3,2.7
	c-36.3,0-72.7,0-109,0C1741.1,388.9,1717.8,388.9,1694.4,388.9z"/>
<path class="st1" d="M1155.4,263.8c21.2,0,42.3,0,63.5,0c7.1,0,8.9,1.8,10.2,8.6c3.1,16.5,11.9,28.7,27.6,35.3
	c10.4,4.4,21.4,6.1,32.6,6.5c17,0.6,34,0.2,50.2-6.1c5.2-2,9.8-4.9,13.2-9.4c7.4-9.8,4-21.6-7.4-25.8c-9.4-3.5-19.2-5.3-28.8-7.9
	c-44.3-11.8-88.3-24.7-130.8-42.1c-15.9-6.5-30.3-15.2-40.9-29.2c-20-26.7-21.3-63.1-3.1-92.4C1157.6,75.6,1181,59,1208,47
	c31.8-14.1,65.4-20.2,99.9-21.6c48.1-1.9,95.5,2.1,141.2,18.5c18.1,6.5,35.4,14.7,49.2,28.5c20.8,20.6,28.4,46.3,28.4,74.9
	c0,3.2-1.3,3.8-4.2,3.8c-42.3-0.1-84.7-0.1-127-0.1c-4.2,0-7.6-3.1-8.6-7.4c-4.5-18.9-17.3-29-35.8-32.3
	c-18.2-3.3-36.5-2.9-54.5,1.8c-4.7,1.2-9.1,3.2-13,6.1c-12.3,9.1-10.7,27.3,3.2,33.7c13.7,6.3,28.5,8.8,43.1,12.1
	c34.4,7.8,69,14.3,103,24c14.9,4.3,29,10.5,42.1,18.8c23.2,14.7,31.6,36.1,29.4,62.8c-3.8,45.4-28.9,75.7-67.7,96.1
	c-29.5,15.5-61.5,23.1-94.4,27.2c-36.8,4.7-73.8,4.9-110.7,0.9c-32.3-3.5-63.5-11-91.5-28.7c-31.4-19.9-48.7-48.3-52.3-85.2
	c-0.4-3.8-0.3-7.7-1.1-11.4c-1.2-5.3,1.1-5.8,5.6-5.7C1113.4,263.9,1134.4,263.8,1155.4,263.8z"/>
<path class="st1" d="M648.5,260.4c-7.7,23.4-19.9,44.4-36.2,63c-33.3,38-76,59.3-125,68.3c-47,8.7-94.2,7.8-140.9-2.9
	c-32.2-7.3-61.5-20.9-84.7-44.9c-31.1-32.1-46.3-71.3-39.7-115.4c14.2-95.3,68.1-159,159.8-189.4c39.4-13.1,80.3-15,121.5-12.7
	c27.7,1.5,55,5.5,81.1,15.4c16.4,6.2,31.7,14.5,45.1,26c22.9,19.8,33.8,45.5,36.5,75.2c1.5,16,1.4,31.9,0.1,47.9c-0.2,2.9-0.8,4-4,4
	c-42.3-0.1-84.7-0.1-127-0.1c-4.9,0-7.4-2.7-7-7.4c0.7-9.5,0.2-19-2.4-28.2c-6.8-23.7-22.7-34.5-48.3-33.1
	c-55.7,3-103.2,46-110.9,101.5c-3.3,23.6,1.9,45,22.2,60.1c14,10.4,30.7,12.4,47.6,11.6c28.4-1.5,50.7-14.7,67.9-36.9
	c3.1-3.9,6-5.5,11.1-5.4c34.5,0.3,69-0.1,103.5,0.3C628.5,257.3,638.9,254.5,648.5,260.4z"/>
<path class="st1" d="M597.9,385.7c11.2-15.2,22.5-30.5,33.7-45.7c73.3-99.2,146.6-198.5,219.8-297.8c2.8-3.9,5.6-5.4,10.5-5.4
	c49.2,0.2,98.3,0.1,147.5,0.1c7.2,0,9.3,1.9,10.5,8.8c10.9,62.1,21.8,124.2,32.8,186.3c9,51.1,17.9,102.3,27,153.4
	c0.6,3.5-0.6,3.8-3.5,3.8c-46.7-0.1-93.3,0-140-0.1c-5.1,0-8-2.8-8.4-7.8c-0.9-10.1-1.9-20.2-2.7-30.4c-0.2-2.6-1.1-3.3-3.6-3.3
	c-44.5,0.1-89,0.1-133.5,0c-2.6,0-3.9,1.2-5.1,3.1c-7.7,11.7-15.5,23.3-23.1,35c-1.5,2.3-3,3.3-5.9,3.3c-49.3-0.1-98.7-0.1-148,0.1
	C602.7,389.1,601.5,385,597.9,385.7z"/>
<path class="st2" d="M1754.9,583.6c0-28.9,0.1-56.2-0.1-83.5c0-4.9,1.2-6.2,6.1-6c9.4,0.4,9.4,0.1,9.4,9.6c0,33.5-0.1,67,0.1,100.5
	c0,4.6-1.4,5.3-5.6,5.5c-6,0.3-10-1.4-14-6.2c-22.2-26-44.7-51.6-67.2-77.4c-1.2-1.4-2.4-2.7-3.9-4.3c-1.2,2-0.7,3.8-0.7,5.5
	c0,25.8-0.1,51.7,0.1,77.5c0,3.8-1,4.8-4.7,4.7c-11.2-0.1-11.2,0-11.2-11.2c0-33,0.1-66-0.1-99c0-4.3,1.3-5,5.3-5.3
	c5.9-0.4,9.8,1.7,13.6,6.2c22.1,25.6,44.5,51,66.8,76.4C1750.4,578.6,1752.2,580.6,1754.9,583.6z"/>
<path class="st2" d="M758.9,583.3c0-2.9,0-4.5,0-6.2c0-26.2,0.1-52.3-0.1-78.5c0-3.8,1-4.8,4.7-4.7c10.7,0.2,10.7,0,10.7,10.7
	c0,33.2-0.1,66.3,0.1,99.5c0,4.5-1.3,5.3-5.6,5.6c-6.1,0.3-10-1.6-14-6.2c-21.6-25.3-43.6-50.4-65.5-75.5c-1.8-2.1-3.7-4.1-5.7-6.4
	c-1.1,1.8-0.6,3.5-0.6,5.1c0,26-0.1,52,0.1,78c0,4.1-1.2,5-5.1,5c-10.8-0.1-10.8,0-10.8-10.7c0-33,0.1-66-0.1-99
	c0-4.3,0.7-6,5.6-6.1c5.5-0.1,9.1,1.6,12.7,5.8c22.8,26.3,45.8,52.4,68.8,78.6C755.4,579.6,756.7,580.9,758.9,583.3z"/>
<path class="st2" d="M1571.8,492.8c32.3,0,55.8,18.5,61.6,47.8c6.5,32.6-15.6,64.2-48.4,69.3c-19.6,3-38.1,0.2-53.6-13
	c-18.9-16.1-25.1-37.1-18.8-60.8c6.3-23.6,22.7-37.2,46.5-42.2C1563.6,493,1568.1,492.6,1571.8,492.8z"/>
<path class="st2" d="M514.6,551.4c0.3-34.5,26.8-58.9,63.4-58.6c34.9,0.3,61.1,25.9,60.7,59.4c-0.4,34.5-27.3,59.2-64,58.7
	C540.3,610.5,514.3,584.7,514.6,551.4z"/>
<path class="st2" d="M1046.8,554.6c18.5,14.8,25.9,37,41.6,54.9c-7.3,0-12.9,0-18.5,0c-2.4,0-2.9-1.9-3.9-3.4
	c-6.7-10.1-13.3-20.3-20.1-30.4c-2.4-3.5-5.5-6.7-8.4-9.9c-5.3-5.8-12.3-6.7-19.7-6.4c-3.3,0.1-2.6,2.4-2.6,4.3
	c0,13.3-0.2,26.7,0.1,40c0.1,4.3-0.7,6.1-5.6,5.9c-10.9-0.4-10.9-0.1-10.9-11.1c0-32.7,0-65.3,0-98c0-7.5-0.8-6.6,6.8-6.5
	c10.3,0.1,20.6-0.5,30.9,0.8c21.7,2.8,34.2,21.7,27.6,41.9C1061.2,545.3,1055.2,550.7,1046.8,554.6z"/>
<path class="st2" d="M1101.6,534.7c0-12.2,0.1-24.3-0.1-36.5c0-3.3,1-4.2,4.3-4.2c12.3-0.1,12.3-0.2,12.3,12.1
	c0,19.2-0.1,38.3,0,57.5c0.1,21.8,14.8,34.6,36.6,32.1c3.1-0.4,6.3-0.9,9.3-1.8c12.8-3.7,19.7-12,20-25.4c0.4-22.7,0.4-45.3,0.2-68
	c0-4.8,0.8-6.7,6.2-6.5c10.6,0.5,10.6,0.1,10.6,10.7c0,19.3,0,38.7,0,58c0,5.5-0.5,11-1.9,16.3c-3.6,13.5-11.8,23.1-25,27.8
	c-17.1,6.1-34.4,6.5-50.9-2.2c-13.3-7-20.5-18.5-21.2-33.4c-0.6-12.1-0.1-24.3-0.1-36.5C1101.8,534.7,1101.7,534.7,1101.6,534.7z"/>
<path class="st2" d="M1330.8,519.7c-8.7-4.4-16.7-8.4-25.5-10.2c-15.1-3.1-29.5-2-42.5,7.1c-14.7,10.4-21,28.4-16.6,46.9
	c3.9,16.4,18.1,28.7,35.6,31.5c16.6,2.6,31.6-1.8,45.9-9.7c1.1-0.6,2.3-1.3,4.2-2.4c0,5.8,0,11,0,16.2c0,1.7-1.1,2.3-2.3,2.9
	c-24.6,11.2-49.5,13.8-73.8,0c-21.8-12.4-31.6-36.5-26.9-61.7c4.4-23.5,23.8-41.9,48.5-46.4c17.7-3.2,34.4,0.7,50.7,7.2
	c2,0.8,2.7,2.1,2.6,4.2C1330.7,509.7,1330.8,514.2,1330.8,519.7z"/>
<path class="st2" d="M494.1,582.9c0,3.5,0,6.2,0,8.8c0,9.7,0,9.8-9.3,13.3c-18.5,6.9-37.3,8.4-56.2,1.9c-24.3-8.4-39.9-32-38.6-57.6
	c1.4-26.3,20.1-48.5,45.2-54.5c19.2-4.6,37.3-1,55.1,6.2c1.7,0.7,2.7,1.5,2.6,3.6c-0.2,4.8,0,9.6,0,15c-8.6-4.4-16.8-8.5-25.8-10.2
	c-20.2-3.9-38.4-0.7-51.6,16.6c-17.1,22.4-9.2,63.1,28.9,69.1c16.4,2.6,31.3-1.9,45.5-9.7C491,584.7,492.2,584,494.1,582.9z"/>
<path class="st2" d="M863.1,519.4c-9.5-8.2-19-12.8-30.6-11.5c-9.9,1-16,7.7-14.5,16c0.9,4.9,4,8.4,8,11c6.4,4.2,13,8,19.6,12
	c5,3,9.8,6.4,13.6,10.8c9,10.4,11,22.3,5.7,34.9c-5.2,12.3-15.4,17.8-28.5,18.3c-10.6,0.4-20.4-2.2-29.5-7.7
	c-2.8-1.7-4.3-3.6-4.1-7.1c0.4-5.1,0.1-10.2,0.1-16c3.4,3.1,6.1,6,9.2,8.3c8.6,6.6,18.3,9.7,29,6.5c10.7-3.2,14.2-13.9,7.8-23.1
	c-2.7-3.9-6.5-6.6-10.4-9.3c-7.4-5.1-15.5-9.2-22.6-14.7c-12-9.4-16.1-20.2-12.5-33.1c3.3-12.1,13.4-20,27.7-21.6
	c10.2-1.2,19.9,0.7,28.8,5.9c1.6,0.9,3.1,1.7,3.1,4.1C863,508.1,863.1,513.2,863.1,519.4z"/>
<path class="st2" d="M921,559.2c0-15.1-0.1-30.3,0.1-45.4c0-3.6-0.7-4.9-4.6-4.8c-10.3,0.3-20.6,0-31,0.2c-3.3,0.1-4.7-0.5-4.6-4.2
	c0.1-10.7-0.1-10.8,10.6-10.8c27,0,53.9,0.1,80.9-0.1c3.9,0,5.6,0.7,5.5,5.1c-0.3,9.9,0,9.9-10,9.9c-8.5,0-17,0.2-25.5-0.1
	c-3.8-0.1-4.8,1-4.7,4.7c0.2,30,0,59.9,0.2,89.9c0,4.8-1.1,6.3-6,6.1c-10.8-0.4-10.8-0.1-10.8-11.1C921,585.5,921,572.3,921,559.2z"
	/>
<path class="st2" d="M1404,559.2c0,15.3-0.1,30.7,0.1,46c0,3.5-1,4.5-4.5,4.4c-12.3,0-12.3,0.1-12.3-12.2c0-27.8-0.1-55.6,0.1-83.5
	c0-3.8-0.9-5.2-4.9-5.1c-10.2,0.3-20.3,0-30.5,0.2c-3.2,0.1-4.7-0.5-4.7-4.3c0.1-10.7-0.1-10.7,10.8-10.7c26.8,0,53.6,0.1,80.5-0.1
	c4.1,0,5.8,0.6,5.6,5.3c-0.4,9.7-0.1,9.7-9.6,9.7c-8.7,0-17.3,0.2-26-0.1c-3.9-0.1-4.7,1.2-4.6,4.8
	C1404.1,528.9,1404,544,1404,559.2z"/>
<path class="st2" d="M1464.9,551.4c0-17.5,0.1-35-0.1-52.5c0-3.5,0.6-5,4.6-4.9c11.9,0.2,11.9,0,11.9,12.1c0,32.7-0.1,65.3,0.1,98
	c0,4.2-0.7,5.8-5.4,5.7c-11.1-0.3-11.1-0.1-11.1-11.3C1464.9,582.7,1464.9,567,1464.9,551.4z"/>
<path class="st3" d="M911,149.4c1.7,19.4,3.3,38,4.8,56.5c1.8,21.2,3.5,42.5,5.2,63.7c0.2,2.2,0.7,4.2-2.9,4.2
	c-29.5-0.1-58.9-0.1-88.4-0.1C831,269.7,902.3,160.7,911,149.4z"/>
<path class="st0" d="M1617.3,551.9c0,25.2-19.3,44-45.1,43.9c-25.5-0.1-44.5-18.8-44.6-43.9c-0.1-25.5,18.8-44,44.8-44
	C1598.4,507.9,1617.3,526.5,1617.3,551.9z"/>
<path class="st0" d="M531.7,552c-0.1-25.5,18.9-44.1,44.8-44.1c25.7,0,44.7,18.4,45.1,43.5c0.3,24.9-19.2,44.3-44.7,44.4
	C551,595.9,531.8,577.2,531.7,552z"/>
<path class="st0" d="M1015.1,526.5c0-5,0-10,0-15c0-1.9,0.2-3.3,2.6-3.3c6.5,0.1,13-0.2,19.3,1.6c7.2,2.2,10.9,7,11.3,14.6
	c0.5,8.8-2.6,14.6-9.4,17.6c-6.9,3.1-14.3,2.5-21.6,2.5c-2.2,0-2.2-1.6-2.2-3.1C1015.1,536.5,1015.1,531.5,1015.1,526.5z"/>
</svg>
