<?xml version="1.0" encoding="utf-8"?>
<!-- Generator: Adobe Illustrator 22.1.0, SVG Export Plug-In . SVG Version: 6.00 Build 0)  -->
<svg version="1.1" id="Layer_1" xmlns="http://www.w3.org/2000/svg" xmlns:xlink="http://www.w3.org/1999/xlink" x="0px" y="0px"
	 viewBox="0 0 524 318" style="enable-background:new 0 0 524 318;" xml:space="preserve">
<style type="text/css">
	.st0{fill:#FEEEBA;}
	.st1{fill:#787878;}
	.st2{fill:#FEC300;}
	.st3{fill:#FEFEFE;}
</style>
<g>
	<path d="M86,0.6c14.9,0.6,29.5,2.6,43.1,9.1c22.3,10.8,34,28.9,34.7,53.5c0.7,22,0.1,44,0.3,66c0,3.4-1.2,3.7-4,3.7
		c-19-0.1-38-0.2-57,0c-3.5,0-4-1.2-4-4.3c0.1-19.7,0.2-39.3,0-59C99,58,88.6,50.4,78,53.8c-6.7,2.2-10.8,8.4-10.8,16.8
		c0,18.2,0,36.3,0,54.5c0,40.3,0,80.6,0,121c0,9.3,4.3,15.8,11.6,17.7c10.5,2.7,20.2-4.6,20.3-15.9c0.2-19,0.3-38-0.1-57
		c-0.1-5.2,1.3-6.3,6.3-6.2c18.2,0.3,36.3,0.2,54.5,0c3.6,0,4.4,1,4.4,4.4c-0.2,14.7-0.1,29.3-0.1,44c0,13.9-5.3,24.9-16.3,33.7
		c-20.8,16.4-41.2,33.3-61.7,50c-5.9,0.9-11.8,0.1-17.7,0.4c-1.8,0.1-3.6-0.5-5.3,0.5c-0.3,0-0.7,0-1,0c-3.9-0.9-7.9-0.5-11.7-1.2
		C26,311.9,3.5,290.3,0.8,266.1c-0.2-2-0.2-4-0.3-6c0-1.8,0-3.5,0-5.3c0-61.1,0-122.1,0-183.2c0-2,0.5-4-0.5-5.9c0-2.3,0-4.7,0-7
		c0.8-10.1,3.4-19.5,8.8-28.1c10-16,25.4-23.8,43.1-28.1C60.3,0.4,69,0.3,77.6,0.3C80.4,0.4,83.2-0.1,86,0.6z"/>
	<path class="st0" d="M114,317.8c0-0.8,0.1-1.6,1-2c4.3-0.8,8.6-0.6,12.9-0.6c98,0,196.1,0,294.1,0c4,0,8-0.1,11.9,0.7
		c1,0.3,1,1.1,1.1,2C328,317.8,221,317.8,114,317.8z"/>
	<path class="st1" d="M524,66.8c-0.3,0-0.7,0-1,0c-1.5-1.6-1.6-3.6-1.6-5.6c-0.1-16.2-0.1-32.4,0-48.7c0-2,0-4,1.5-5.6
		c0.4,0,0.7-0.1,1.1-0.1C524,26.8,524,46.8,524,66.8z"/>
	<path d="M522.9,6.9c0,20,0.1,39.9,0.1,59.9c-13.2,0.1-26.3,0.3-39.5,0.1c-4.2-0.1-5.2,1.2-5.2,5.3c0.1,79.5,0,159,0.2,238.5
		c0,5.3-1.6,5.9-6.3,6.2c-9.1,0.7-16-2-22.8-8.2c-12.9-11.8-26.6-22.7-40.1-33.8c-2.4-2-3.3-4-3.3-7.2c0.1-65,0-130,0.2-195
		c0-5-1.4-6-6-5.9c-11.7,0.4-23.3,0-35,0.2c-3,0-4-0.6-4-3.8c0.2-17.7,0.1-35.3,0-53c0-2.4,0.3-3.5,3.2-3.5
		C417.3,6.8,470.1,6.8,522.9,6.9z"/>
	<path d="M379.1,249.5c-12.5-10.5-24.3-20.3-36-30.1c-20.9-17.5-41.9-35-62.8-52.7c-2.4-2.1-3.8-1.9-6.2,0.1
		c-30.4,24.7-60.9,49.2-91.3,73.8c-0.9,0.7-1.8,1.4-3.5,2.8c2.5-11.4,4.7-21.7,7-32.1c14.9-66.7,29.8-133.3,44.6-200
		c0.7-3.1,1.7-4.3,5.1-4.3c27.3,0.2,54.7,0.1,82,0c3.1,0,4.5,0.5,5.3,4c18.4,78.5,37,156.9,55.5,235.4
		C379,246.9,378.9,247.6,379.1,249.5z"/>
	<path class="st2" d="M433.9,315.8c-1.2,1.7-3.1,0.9-4.6,0.9c-103.2,0-206.5,0-309.7,0c-1.5,0-3.4,0.8-4.6-0.9
		c44-35.5,88.1-71.1,132.1-106.6c9.1-7.3,18.2-14.6,27.1-22c2.4-2,3.8-1.8,6.2,0.2c50.5,42.4,101,84.7,151.6,127
		C432.6,314.8,433.3,315.3,433.9,315.8z"/>
	<path class="st3" d="M277.5,60.9c5.6,28.6,11,56.4,16.5,84.3c0.6,3.1,0,4-3.3,3.9c-9.2-0.2-18.3-0.1-27.5-0.1c-2,0-3.5,0.2-2.9-2.8
		c5.5-27.4,10.8-54.8,16.2-82.2C276.7,63.2,277,62.4,277.5,60.9z"/>
</g>
</svg>
