<?xml version="1.0" encoding="utf-8"?>
<!-- Generator: Adobe Illustrator 25.0.0, SVG Export Plug-In . SVG Version: 6.00 Build 0)  -->
<svg version="1.1" id="Layer_1" xmlns="http://www.w3.org/2000/svg" xmlns:xlink="http://www.w3.org/1999/xlink" x="0px" y="0px"
	 viewBox="0 0 97.535 45.663" style="enable-background:new 0 0 97.535 45.663;" xml:space="preserve">
<style type="text/css">
	.st0{fill-rule:evenodd;clip-rule:evenodd;fill:#2E3192;}
	.st1{fill-rule:evenodd;clip-rule:evenodd;fill:#00A4D6;}
	.st2{fill-rule:evenodd;clip-rule:evenodd;fill:#39BB9D;}
	.st3{fill:#FFFFFF;}
</style>
<g>
	<polygon class="st0" points="9.9,0 41.168,9.899 31.269,41.168 0,31.269 9.9,0 	"/>
	<polygon class="st1" points="31.108,12.937 63.834,10.768 66.003,43.494 33.277,45.663 31.108,12.937 	"/>
	<polygon class="st2" points="64.903,7.324 97.535,10.628 94.23,43.26 61.599,39.955 64.903,7.324 	"/>
	<path class="st3" d="M8.841,17.903L4.647,29.311h6.701c1.275,0,2.231-0.036,2.892-0.113c0.657-0.077,1.292-0.164,1.791-0.358
		c1.036-0.402,2.572-1.933,2.935-2.918l1.469-3.995c0.293-0.796,0.059-2.561-0.66-3.177c-0.358-0.303-0.973-0.515-1.833-0.649
		c-0.846-0.135-2.563-0.197-5.125-0.197H8.841L8.841,17.903z M12.87,20.14c0.577,0,1.524,0.037,1.713,0.103
		c0.56,0.196,0.852,1.015,0.717,1.372l-1.592,4.211c-0.285,0.753-0.999,1.107-1.24,1.279c-0.236,0.168-1.306,0.253-2.072,0.253
		L12.87,20.14L12.87,20.14z"/>
	<path class="st3" d="M63.15,21.357l0.166-0.452c0.334-0.909-0.162-1.549-0.338-1.922c-0.179-0.379-0.704-0.699-1.586-0.945
		c-0.878-0.246-2.007-0.373-3.385-0.373c-1.262,0-2.819,0.21-3.801,0.439c-0.976,0.227-1.678,0.693-2.227,1.097
		c-0.541,0.398-1.162,1.078-1.484,1.954c-0.223,0.606-0.272,1.106-0.132,1.494c0.141,0.389,0.272,0.909,0.622,1.125
		c0.35,0.217,0.915,0.585,2.093,0.973c1.099,0.362,2.736,0.37,3.212,0.915c0.212,0.243,0.374,0.651,0.13,1.318
		c-0.224,0.612-1.187,0.915-1.893,0.915c-0.353,0-1.005-0.296-1.098-0.414c-0.193-0.245-0.156-1.019-0.066-1.333h-4.935
		c-0.088,0.671-0.314,1.404-0.117,2.032c0.145,0.463,0.781,0.939,1.669,1.24c0.896,0.304,2.051,0.455,3.48,0.455
		c1.301,0,3.615-0.128,4.684-0.39c1.064-0.261,1.935-0.908,2.417-1.295c0.482-0.387,0.835-0.741,1.132-1.551
		c0.411-1.12,0.317-2.106-0.182-2.585c-1.231-1.183-2.049-1.148-4.736-1.852c-0.745-0.196-0.997-0.418-1.107-0.605
		c-0.115-0.193-0.149-0.613-0.022-0.997c0.079-0.237,0.606-0.743,1.247-0.757c0.662-0.015,1.193-0.034,1.325,0.038
		c0.12,0.066,0.389,0.404,0.31,0.814L58.4,21.357H63.15L63.15,21.357z"/>
	<path class="st3" d="M75.415,17.903H69.13l-8.497,11.408h5.181l1.094-1.766h4.042l-0.118,1.766h5.032L75.415,17.903L75.415,17.903z
		 M71.13,25.256l-2.809-0.017l3.19-5.055L71.13,25.256L71.13,25.256z"/>
	<polygon class="st3" points="94.519,17.903 89.649,17.903 87.193,24.889 86.38,17.903 80.946,17.903 76.91,29.311 81.577,29.311 
		83.845,23.022 84.813,29.311 90.474,29.311 94.519,17.903 	"/>
	<path class="st3" d="M44.526,21.118l-2.167,5.544c-0.097,0.248-0.203,0.557-0.431,0.763c-0.162,0.147-0.312,0.196-0.668,0.196
		l-1.206-0.003c-0.741-0.002-0.511-0.847-0.287-1.458l1.958-5.325c0.215-0.584,0.422-0.657,0.604-0.772
		c0.193-0.122,0.433-0.182,0.713-0.182C44.339,19.88,45.028,19.753,44.526,21.118L44.526,21.118z M48.463,24.582l0.717-1.951
		c0.333-0.906,0.474-2.983-0.28-3.769c-0.765-0.798-2.707-1.198-4.89-1.198c-2.308,0-4.239,0.438-5.549,1.227
		c-0.649,0.395-1.117,0.827-1.39,1.308c-0.266,0.471-0.893,1.282-1.316,2.432l-0.717,1.951c-0.432,1.176-0.4,1.994-0.472,2.465
		c-0.072,0.471,0.086,0.902,0.468,1.304c0.766,0.796,2.423,1.2,4.605,1.2c2.308,0,4.8-0.446,6.1-1.229
		c0.662-0.399,1.121-0.834,1.388-1.304C47.401,26.537,48.04,25.732,48.463,24.582L48.463,24.582z"/>
	<path class="st3" d="M29.934,21.118l-2.167,5.544c-0.097,0.248-0.204,0.557-0.431,0.763c-0.162,0.147-0.312,0.196-0.668,0.196
		l-1.206-0.003c-0.741-0.002-0.511-0.847-0.287-1.458l1.958-5.325c0.215-0.584,0.422-0.657,0.604-0.772
		c0.193-0.122,0.433-0.182,0.713-0.182C29.746,19.88,30.435,19.753,29.934,21.118L29.934,21.118z M33.87,24.582l0.717-1.951
		c0.333-0.906,0.475-2.983-0.279-3.769c-0.765-0.798-2.707-1.198-4.89-1.198c-2.308,0-4.239,0.438-5.549,1.227
		c-0.649,0.395-1.117,0.827-1.39,1.308c-0.266,0.471-0.893,1.282-1.316,2.432l-0.717,1.951c-0.432,1.176-0.4,1.994-0.472,2.465
		c-0.072,0.471,0.086,0.902,0.468,1.304c0.766,0.796,2.423,1.2,4.605,1.2c2.308,0,4.8-0.446,6.1-1.229
		c0.662-0.399,1.121-0.834,1.388-1.304C32.809,26.537,33.447,25.732,33.87,24.582L33.87,24.582z"/>
</g>
</svg>
