<?xml version="1.0" encoding="utf-8"?>
<!-- Generator: Adobe Illustrator 22.1.0, SVG Export Plug-In . SVG Version: 6.00 Build 0)  -->
<svg version="1.1" id="Layer_1" xmlns="http://www.w3.org/2000/svg" xmlns:xlink="http://www.w3.org/1999/xlink" x="0px" y="0px"
	 viewBox="0 0 490 148" style="enable-background:new 0 0 490 148;" xml:space="preserve">
<style type="text/css">
	.st0{fill:#0C5B99;}
	.st1{fill:#0C5B9A;}
	.st2{fill:#FEFEFE;}
	.st3{fill:none;stroke:#0C5B99;stroke-width:2;stroke-miterlimit:10;}
	.st4{font-family:'ArialMT';}
	.st5{font-size:8.956px;}
</style>
<path class="st0" d="M223.4,82.6c1.3-3.6,2.1-6.2,3.1-8.8c8.8-22.6,31.1-35.1,54.8-30.8c22.1,4,39.2,25.1,39.2,48.4
	c0,15.2-0.1,30.3,0.1,45.5c0,3.2-0.8,4.3-4.1,4.2c-6.8-0.3-13.7-0.3-20.5,0c-3.6,0.1-4.5-1.2-4.5-4.6c0.1-15.3,0.2-30.6,0-46
	c-0.1-10.1-7.5-17.8-17.7-19.1c-8.8-1.2-18,4.8-20.8,13.7c-0.9,2.7-1,5.6-1,8.4c-0.1,14.2-0.2,28.3-0.1,42.5c0,3.7-0.6,5.2-4.8,5.1
	c-24-0.2-48,0.1-72-0.2c-24.9-0.3-44.7-17.8-48.5-42c-3.9-25.5,12.5-49.5,37.9-55.4c24.3-5.7,49.2,8.8,56.9,33.1
	C222.1,78.3,222.6,79.9,223.4,82.6z"/>
<path class="st0" d="M79.4,89c13.3-14,26.1-27.5,40-42.2c0,2.9,0,4.3,0,5.7c0,22.5-0.1,45,0.1,67.5c0,4.1-1.1,6.8-4.5,9.2
	c-22.3,15.8-46.2,18.9-70.7,6.9C19.7,124,6.3,103.4,5.6,75.5c-0.7-27,11.3-47.9,34.2-61.3c22.4-13.1,45.7-12.6,68.5,0.1
	c5.2,2.9,5.2,3,0.9,7.5c-5,5.3-10.1,10.6-15,16c-1.8,2-3.4,2.4-6,1.3c-14.9-5.9-28.7-3.3-40.1,7.7c-11.3,10.9-14.5,24.6-9.4,39.4
	c5.2,15.1,16.4,23.4,32.2,25.4c2.3,0.3,4.7,0.1,6.9-0.3c7.2-1.2,11.2-4.7,11.6-9.8C89.8,96,86.6,91.8,79.4,89z"/>
<path class="st0" d="M438,112.3c6.6,0,13.2,0.2,19.8-0.1c3.8-0.1,5.4,0.8,5.2,5c-0.3,6.8-0.1,13.6-0.2,20.5c0,1.7,0.2,3.5-2.4,3.4
	c-18.6-0.5-37.4,1.8-55.8-1.3c-24.9-4.1-42.7-30.2-38.6-55.3c4.3-26.7,27.9-45,53.7-41.8c21.4,2.7,36.8,16.5,42.3,37.5
	c0.9,3.5,0.5,6-2.2,8.5c-7.8,7-15.4,14.2-23.1,21.3C437.1,110.8,437.5,111.5,438,112.3z"/>
<path class="st0" d="M358.8,94c0,14.1-0.2,28.3,0.1,42.4c0.1,4.1-1.2,5.1-5.1,4.9c-6.6-0.3-13.3-0.2-20,0c-3,0.1-4.4-0.5-4.4-4.1
	c0.1-28.8,0.1-57.6,0-86.4c0-3.2,1.1-3.9,4-3.8c7.2,0.2,14.3,0.2,21.5,0c3.2-0.1,3.9,1.1,3.9,4C358.7,65.4,358.8,79.7,358.8,94z"/>
<path class="st1" d="M367.2,36.1c-14.7,0-31,0-48.5,0c2.8-2.9,5-5.2,7.2-7.5c5.1-5.2,10.3-10.4,15.3-15.7c1.7-1.8,2.8-2.3,4.7-0.2
	C353.1,20.7,360.5,28.7,367.2,36.1z"/>
<path class="st2" d="M197.9,111.7c8.5-8.7,16.5-16.8,24.4-25c1.3-1.4,2.1-0.8,3.3,0.3c8.2,7.7,16.5,15.4,24.8,23.1
	c-0.4,0.6-0.9,1.1-1.3,1.7C232.3,111.7,215.6,111.7,197.9,111.7z"/>
<path class="st2" d="M175.7,71.6c1.4,0.2,2.9,0.2,4.3,0.5c8.8,2.1,9.6,4.7,3.5,11.1c-6.4,6.7-13,13.4-19.2,20.3
	c-2.5,2.8-3.8,2-5.5-0.5c-4.4-6.7-4.8-13.8-1.2-20.8C161.3,75.1,167.7,71.9,175.7,71.6z"/>
<path class="st2" d="M414.9,71.7c1.2,0.1,2.4,0.1,3.5,0.3c3.6,0.8,7.8,1.9,9.1,5.2c0.9,2.2-3,4.2-4.8,6.2
	c-6.3,6.8-12.9,13.4-19.1,20.3c-2.2,2.5-3.4,2.1-5.2-0.4c-4.7-6.8-5-13.9-1.3-21.2C400.7,74.9,407,71.9,414.9,71.7z"/>
<circle class="st3" cx="476.4" cy="132" r="8"/>
<text transform="matrix(1 0 0 1 473.1709 134.9954)" class="st0 st4 st5">R</text>
</svg>
