<?xml version="1.0" encoding="utf-8"?>
<!-- Generator: Adobe Illustrator 25.0.0, SVG Export Plug-In . SVG Version: 6.00 Build 0)  -->
<svg version="1.1" id="Layer_1" xmlns="http://www.w3.org/2000/svg" xmlns:xlink="http://www.w3.org/1999/xlink" x="0px" y="0px"
	 viewBox="0 0 2306.279 398.978" style="enable-background:new 0 0 2306.279 398.978;" xml:space="preserve">
<style type="text/css">
	.st0{fill:#00A650;}
	.st1{fill:#004181;}
	.st2{fill:#FDB813;}
	.st3{fill:#004080;}
	.st4{fill:#004180;}
	.st5{fill:#00407F;}
	.st6{fill:#003D79;}
</style>
<g>
	<path class="st0" d="M253.088,41.33c9.074-12.679,15.433-27.054,25.063-41.33c76.688,132.849,152.71,264.545,228.666,396.126
		c-3.148,3.076-5.953,2.266-8.443,2.268c-147.655,0.102-295.31,0.149-442.965,0.177c-2.322,0-4.645-0.298-6.967-0.456
		c-4.538-4.528-1.428-8.523,0.892-12.556c21.424-37.237,42.925-74.431,64.385-111.647c41.919-72.698,84.051-145.274,125.902-218.012
		C242.879,50.238,244.311,42.18,253.088,41.33z"/>
	<path class="st1" d="M818.521,145.388c0,36.982,0.001,73.964-0.001,110.945c0,2.665,0.086,5.336-0.043,7.995
		c-0.334,6.892-0.757,7.579-7.47,7.685c-13.323,0.209-26.654,0.195-39.979,0.023c-7.818-0.1-8.284-0.592-8.316-8.856
		c-0.105-27.653-0.037-55.306-0.054-82.959c-0.008-13.66-0.026-13.682-13.573-13.688c-30.318-0.014-60.637-0.006-90.955-0.002
		c-2.332,0-4.67,0.151-6.995,0.033c-5.247-0.266-7.135,2.479-6.951,7.339c0.088,2.328-0.024,4.663-0.024,6.996
		c-0.003,25.654,0,51.308-0.007,76.962c-0.001,2.665-0.078,5.329-0.096,7.994c-0.027,4.061-1.992,6.16-6.117,6.155
		c-14.658-0.017-29.316-0.015-43.974-0.038c-3.678-0.006-5.476-1.91-5.485-5.574c-0.006-2.332-0.091-4.663-0.091-6.995
		c-0.005-75.963-0.01-151.925,0.001-227.888c0.002-13.584,0.035-13.598,13.748-13.624c10.661-0.02,21.324-0.087,31.984,0.029
		c9.558,0.104,9.967,0.483,10.001,10.367c0.085,24.987,0.018,49.975,0.041,74.963c0.012,13.474,0.04,13.496,13.817,13.503
		c30.652,0.015,61.303,0.009,91.955-0.005c2.663-0.001,5.328-0.089,7.988-0.214c2.725-0.128,4.323-1.584,4.494-4.331
		c0.165-2.657,0.232-5.324,0.234-7.987c0.019-25.321-0.037-50.642,0.043-75.963c0.031-9.953,0.32-10.228,10-10.329
		c11.66-0.122,23.322-0.099,34.982-0.013c10.606,0.079,10.766,0.206,10.815,10.534c0.085,18.324,0.028,36.648,0.029,54.973
		C818.522,104.076,818.521,124.732,818.521,145.388z"/>
	<path class="st1" d="M1404.806,144.967c0-37.666-0.004-75.333,0.008-112.999c0.001-2.998,0.077-5.998,0.191-8.994
		c0.123-3.227,2.016-4.786,5.091-4.963c2.66-0.153,5.329-0.196,7.993-0.196c52-0.01,103.999-0.027,155.999,0.024
		c5.995,0.006,12.017,0.115,17.978,0.679c25.401,2.404,40.548,17.966,42.478,43.48c0.301,3.984,0.355,7.993,0.356,11.991
		c0.024,62,0.02,123.999,0.022,185.999c0,0.333,0.002,0.667-0.001,1c-0.119,10.991-0.118,11.041-11.177,11.1
		c-11.333,0.061-22.667,0.081-34-0.009c-10.221-0.081-10.509-0.326-10.533-10.886c-0.069-30-0.028-60-0.029-89.999
		c-0.002-28.333,0.008-56.666-0.018-84.999c-0.003-3.33-0.11-6.666-0.331-9.988c-0.339-5.084-3.263-7.852-8.204-8.491
		c-2.637-0.341-5.306-0.605-7.96-0.609c-30.333-0.044-60.666-0.036-90.999-0.022c-1.997,0.001-3.998,0.096-5.989,0.252
		c-3.158,0.248-4.788,2.036-4.873,5.184c-0.08,2.998-0.132,5.998-0.133,8.997c-0.008,58.333-0.005,116.666-0.009,174.998
		c0,3-0.14,6.003-0.035,8.998c0.164,4.691-2.144,6.575-6.668,6.552c-14.332-0.07-28.665-0.051-42.998-0.031
		c-4.11,0.006-6.156-1.908-6.096-6.071c0.038-2.665-0.061-5.332-0.062-7.999C1404.805,220.3,1404.806,182.633,1404.806,144.967z"/>
	<path class="st1" d="M1125.138,144.16c-0.002-37.325-0.004-74.65,0.002-111.975c0-2.666,0.063-5.331,0.09-7.997
		c0.039-4.002,1.88-6.207,6.055-6.199c14.661,0.027,29.323,0.01,43.985,0.059c3.606,0.012,5.5,1.907,5.546,5.564
		c0.038,2.998,0.127,5.997,0.127,8.995c0.008,57.987,0.006,115.974,0.007,173.961c0,2.666-0.09,5.337,0.044,7.997
		c0.347,6.852,0.814,7.634,7.496,7.657c32.992,0.114,65.985,0.153,98.976-0.065c9.043-0.06,11.523-2.86,12.384-12.151
		c0.337-3.64,0.255-7.324,0.256-10.988c0.014-54.987,0.01-109.975,0.01-164.963c0-1.666-0.015-3.333,0.009-4.999
		c0.155-10.963,0.202-11.071,11.298-11.147c11.33-0.078,22.663-0.118,33.992,0.023c9.149,0.114,9.74,0.712,9.938,9.554
		c0.164,7.328,0.051,14.663,0.051,21.994c0.001,53.988,0.027,107.976-0.028,161.964c-0.01,9.32,0.029,18.654-2.44,27.794
		c-3.983,14.752-13.486,24.239-27.723,29.045c-8.591,2.9-17.6,3.762-26.621,3.773c-54.321,0.07-108.642,0.067-162.963,0.017
		c-10.127-0.009-10.453-0.369-10.468-10.94C1125.106,222.142,1125.14,183.151,1125.138,144.16z"/>
	<path class="st1" d="M840.689,19.208c3.621-1.969,7.02-1.267,10.292-1.286c13.988-0.081,27.998,0.437,41.956-0.211
		c8.369-0.388,13.294,2.459,17.578,9.71c17.957,30.389,36.477,60.445,54.871,90.574c1.854,3.037,3.002,6.708,6.551,8.63
		c3.616-1.792,4.704-5.53,6.552-8.559c18.557-30.419,37.21-60.784,55.347-91.454c3.929-6.644,8.396-9.167,16.008-8.882
		c14.634,0.547,29.303,0.137,43.957,0.178c2.947,0.008,5.985-0.422,8.97,1.126c0.505,4.538-2.784,7.36-4.85,10.554
		c-29.835,46.144-59.665,92.293-89.792,138.246c-4.417,6.737-6.417,13.424-6.299,21.447c0.352,23.974,0.176,47.957,0.096,71.937
		c-0.035,10.508-0.352,10.796-10.535,10.86c-13.322,0.084-26.645,0.118-39.965-0.025c-8.559-0.092-9.003-0.509-9.041-9.147
		c-0.107-24.312-0.27-48.628,0.084-72.936c0.117-8.011-1.813-14.696-6.237-21.445c-30.312-46.23-60.304-92.67-90.345-139.078
		C843.94,26.442,841.25,23.766,840.689,19.208z"/>
	<path class="st2" d="M253.088,41.33c-1.822,3.538-3.5,7.16-5.487,10.603C182.878,164.09,118.122,276.227,53.405,388.387
		c-1.816,3.147-4.143,6.062-4.963,9.728c-15.969,0-31.938,0-47.845,0c-0.194-0.425-0.364-0.706-0.45-1.011
		c-0.085-0.302-0.215-0.686-0.103-0.934c0.682-1.51,1.338-3.043,2.164-4.474C77.128,261.952,152.063,132.216,227.035,2.501
		c0.257-0.444,1.073-0.564,2.31-1.169C237.236,14.626,245.162,27.978,253.088,41.33z"/>
	<path class="st1" d="M2246.565,144.853c0-36.947,0-73.893,0-110.84c0-1.664-0.014-3.329,0.006-4.993
		c0.133-10.953,0.164-11.046,11.238-11.113c12.315-0.075,24.631-0.067,36.947-0.004c11.346,0.058,11.406,0.111,11.433,11.943
		c0.047,21.303,0.014,42.605,0.014,63.908c0,54.255,0.001,108.51-0.004,162.765c0,2.995-0.102,5.991-0.07,8.986
		c0.05,4.611-2.271,6.57-6.778,6.554c-15.311-0.052-30.624,0.139-45.931-0.085c-6.132-0.09-6.75-0.955-6.794-8.292
		c-0.128-21.302-0.057-42.605-0.061-63.908C2246.562,181.466,2246.565,163.159,2246.565,144.853z"/>
	<path class="st3" d="M2260.162,353.585c-3.113,4.587-2.15,7.989-2.21,11.193c-0.17,8.978-0.137,17.96-0.14,26.94
		c-0.002,4.445-1.908,6.622-6.599,6.708c-6.792,0.124-8.393-0.855-8.458-7.673c-0.171-17.96-0.149-35.924-0.005-53.884
		c0.027-3.367-1.474-7.631,3.357-9.409c5.087-1.872,12.215-0.075,15.276,3.919c1.21,1.58,2.224,3.312,3.308,4.987
		c6.145,9.493,12.213,19.038,18.471,28.455c1.744,2.624,2.738,6.035,6.999,7.7c1.344-6.193,0.552-12.084,0.68-17.88
		c0.161-7.314,0.073-14.634,0.146-21.951c0.052-5.151,3.641-5.595,7.575-5.626c4.013-0.031,7.477,0.636,7.524,5.703
		c0.084,8.98,0.105,17.961,0.121,26.941c0.018,9.646,0.125,19.295-0.069,28.937c-0.068,3.397,1.334,7.655-3.43,9.4
		c-4.969,1.821-12.51,0.065-15.353-3.816c-3.141-4.29-5.97-8.808-8.924-13.235C2272.55,372.182,2266.678,363.363,2260.162,353.585z"
		/>
	<path class="st4" d="M734.614,362.283c0-6.66-0.262-13.333,0.063-19.977c0.457-9.349,4.101-13.842,13.055-14.708
		c14.261-1.38,28.609-0.528,42.922-0.434c5.016,0.033,5.762,3.35,5.734,7.472c-0.027,4.071-1.663,6.258-5.873,6.266
		c-9.324,0.019-18.649,0.029-27.972,0.114c-11.55,0.105-12.004,0.525-12.079,11.613c-0.056,8.325,0.065,16.65,0.049,24.975
		c-0.009,4.485,2.066,6.813,6.626,6.808c6.66-0.007,13.32-0.034,19.979,0.025c5.175,0.046,6.977-2.816,7.037-7.573
		c0.071-5.689-0.969-7.046-6.628-7.61c-1.983-0.198-3.993-0.194-5.989-0.163c-4.894,0.074-6.218-2.747-6.119-7.074
		c0.098-4.325,2.415-5.772,6.388-5.722c6.992,0.087,13.986,0.085,20.978,0.045c4.221-0.024,5.993,2.122,5.947,6.181
		c-0.087,7.656,0.267,15.341-0.276,22.963c-0.536,7.52-4.463,11.865-11.945,12.444c-13.272,1.027-26.642,1.115-39.907-0.042
		c-7.687-0.67-11.146-5.36-11.944-13.626c-0.064-0.662-0.086-1.33-0.086-1.996c-0.006-6.66-0.004-13.321-0.004-19.981
		C734.585,362.283,734.6,362.283,734.614,362.283z"/>
	<path class="st4" d="M706.144,371.905c1.173-10.188,0.267-20.448,0.541-30.667c0.062-2.331-0.079-4.672,0.057-6.997
		c0.358-6.092,1.308-7.021,6.984-7.176c6.261-0.171,7.966,0.999,8.039,7.208c0.214,18.327,0.147,36.658,0.057,54.987
		c-0.016,3.172,0.762,6.925-3.219,8.681c-3.935,1.736-12.482,0.32-14.822-2.782c-3.205-4.251-6.03-8.79-8.997-13.219
		c-6.26-9.346-12.506-18.702-18.655-27.9c-3.947,1.549-2.9,4.249-2.929,6.321c-0.141,9.996,0.055,19.998-0.147,29.992
		c-0.14,6.955-1.248,7.953-7.182,7.994c-6.037,0.042-7.248-0.959-7.308-7.789c-0.157-17.995-0.134-35.993-0.006-53.988
		c0.024-3.389-1.338-7.646,3.669-9.211c5.065-1.584,11.737-0.089,14.531,3.607c2.206,2.917,4.077,6.09,6.075,9.162
		c7.051,10.841,14.093,21.689,21.138,32.534C704.695,372.409,705.419,372.157,706.144,371.905z"/>
	<path class="st4" d="M1658.721,373.323c1.951-3.992,1.341-7.334,1.372-10.53c0.095-9.664-0.109-19.333,0.154-28.991
		c0.154-5.657,1.72-6.701,7.448-6.746c4.274-0.034,7.049,1.208,7.03,6.165c-0.075,19.662-0.011,39.324-0.066,58.986
		c-0.006,2.302-0.021,5.187-2.984,5.592c-4.831,0.66-10.016,2.153-14.17-1.902c-1.64-1.601-2.792-3.721-4.081-5.661
		c-6.272-9.436-12.44-18.942-18.818-28.306c-1.795-2.635-2.82-6.073-7.178-7.661c-1.523,5.292-0.707,10.534-0.818,15.646
		c-0.166,7.661-0.122,15.328-0.143,22.992c-0.013,4.501-2.817,5.548-6.611,5.456c-3.662-0.088-7.736,0.46-8.189-4.885
		c-0.225-2.651-0.273-5.323-0.277-7.986c-0.022-15.997-0.124-31.995,0.082-47.989c0.047-3.646-1.641-8.395,3.854-10.134
		c5.545-1.755,12.099-0.059,15.152,4.401c4.892,7.148,9.365,14.581,14.228,21.75
		C1649.076,359.959,1652.527,367.105,1658.721,373.323z"/>
	<path class="st1" d="M1242.194,362.886c-0.003-7.318-0.347-14.655,0.09-21.946c0.483-8.059,3.613-12.003,11.184-13.016
		c14.877-1.99,29.884-0.851,44.836-0.642c4.519,0.063,4.958,3.534,4.955,7.123c-0.002,3.931-1.514,6.404-5.764,6.441
		c-7.983,0.069-15.967,0.13-23.951,0.151c-16.132,0.042-16.148,0.029-16.164,15.752c-0.007,6.653-0.178,13.32,0.179,19.956
		c0.347,6.446,1.432,7.445,7.865,7.692c6.311,0.242,12.652,0.269,18.956-0.057c5.462-0.283,6.552-1.868,6.599-7.724
		c0.046-5.837-0.799-6.792-6.766-7.38c-1.651-0.163-3.324-0.177-4.986-0.152c-4.624,0.068-6.504-2.175-6.427-6.772
		c0.072-4.249,2.018-6.01,6.092-5.986c6.986,0.042,13.972,0.04,20.958-0.009c3.903-0.027,6.447,1.356,6.415,5.692
		c-0.056,7.648,0.35,15.336-0.307,22.933c-0.726,8.395-5.202,12.858-13.565,13.19c-12.288,0.488-24.626,0.491-36.912-0.022
		c-8.591-0.359-12.636-4.665-13.189-13.278C1241.825,377.545,1242.196,370.204,1242.194,362.886z"/>
	<path class="st3" d="M615.731,398.377c-7.318-0.007-14.637-0.085-21.954,0.022c-4.429,0.064-6.868-1.565-6.851-6.343
		c0.072-19.625,0.053-39.251,0.041-58.876c-0.002-4.174,2.174-6.057,6.177-6.061c15.633-0.015,31.266-0.018,46.9-0.001
		c5.012,0.005,5.871,3.263,5.83,7.383c-0.04,3.991-1.561,6.247-5.868,6.229c-9.646-0.04-19.295-0.07-28.938,0.108
		c-7.522,0.138-10.863,5.747-7.861,12.66c1.398,3.219,4.25,2.796,6.798,2.84c7.981,0.139,15.967,0.193,23.949,0.105
		c4.766-0.052,6.378,2.293,6.36,6.788c-0.018,4.654-2.142,6.658-6.652,6.65c-7.65-0.013-15.305-0.081-22.95,0.143
		c-7.188,0.211-8.113,1.515-8.053,8.16c0.042,4.747,2.249,6.494,6.729,6.437c6.984-0.089,13.97,0.009,20.956,0.029
		c2.661,0.008,5.328-0.084,7.982,0.051c6.197,0.314,7.445,1.469,7.512,6.651c0.07,5.362-1.185,6.81-7.156,6.978
		C631.038,398.547,623.382,398.384,615.731,398.377z"/>
	<path class="st4" d="M1716.437,398.368c-6.331-0.002-12.67,0.184-18.992-0.056c-5.921-0.224-6.841-1.578-6.921-7.174
		c-0.068-4.748,2.157-6.524,6.677-6.495c10.329,0.066,20.66-0.043,30.99-0.061c3.94-0.007,7.292-0.625,7.98-5.516
		c0.843-5.989-1.097-8.929-7.203-9.199c-7.984-0.354-16.001,0.027-23.985-0.326c-13.612-0.602-17.007-4.138-17.595-17.527
		c-0.892-20.333,3.388-24.846,23.776-24.926c9.997-0.039,19.998-0.147,29.988,0.126c5.635,0.154,6.891,1.989,6.802,7.417
		c-0.067,4.06-1.736,6.201-5.967,6.184c-7.664-0.031-15.328,0.037-22.992,0.068c-2.666,0.01-5.34-0.102-7.996,0.073
		c-6.498,0.43-8.027,1.929-8.051,7.562c-0.024,5.709,1.542,7.511,7.837,7.713c8.323,0.267,16.663-0.041,24.989,0.174
		c11.149,0.288,14.945,3.834,15.749,14.943c0.334,4.621,0.202,9.351-0.381,13.947c-1.098,8.663-4.96,12.085-13.718,12.979
		c-0.662,0.068-1.331,0.09-1.997,0.091C1729.1,398.372,1722.768,398.369,1716.437,398.368z"/>
	<path class="st4" d="M916.397,362.479c0.002-9.32,0.131-18.643-0.051-27.959c-0.095-4.893,1.549-7.515,6.816-7.48
		c14.977,0.099,29.956,0.065,44.934,0.012c4.481-0.016,6.745,1.781,6.664,6.528c-0.096,5.615-0.952,6.845-6.977,7.102
		c-5.649,0.241-11.315,0.095-16.973,0.097c-18.419,0.008-18.611,0.082-18.704,7.572c-0.097,7.841,0.401,8.061,18.211,8.065
		c2.33,0,4.66-0.013,6.99,0.004c10.568,0.077,11.543,0.623,11.663,6.495c0.127,6.217-1.158,6.966-12.179,7.027
		c-4.327,0.024-8.655-0.024-12.981,0.014c-10.552,0.093-11.776,0.909-11.67,7.651c0.098,6.25,1.184,6.963,11.195,7.035
		c7.988,0.058,15.981-0.117,23.964,0.094c6.385,0.169,7.359,1.242,7.41,6.651c0.052,5.523-0.983,6.848-7.114,6.926
		c-14.643,0.187-29.292,0.202-43.935-0.006c-6.6-0.094-7.069-0.714-7.218-7.869C916.249,381.122,916.395,371.799,916.397,362.479z"
		/>
	<path class="st1" d="M888.643,372.862c0-13.662-0.137-26.263,0.061-38.858c0.092-5.841,1.527-6.928,7.164-6.915
		c5.887,0.014,7.28,1.184,7.341,7.899c0.167,18.287,0.109,36.576,0.017,54.864c-0.016,3.164,0.738,7.449-3.777,8.052
		c-4.729,0.632-10.156,2.304-13.81-2.731c-3.318-4.572-6.359-9.344-9.499-14.044c-6.056-9.066-12.096-18.144-18-27.003
		c-4.259,1.209-3.026,4.022-3.058,6.008c-0.167,10.305,0.051,20.618-0.179,30.921c-0.142,6.346-1.146,7.14-6.789,7.279
		c-6.234,0.154-7.55-0.824-7.613-7.431c-0.175-18.286-0.133-36.576-0.021-54.864c0.019-3.089-1.113-6.884,3.208-8.513
		c4.529-1.707,12.133-0.406,14.637,3.078c3.683,5.124,6.943,10.551,10.414,15.829c5.479,8.331,10.97,16.654,16.513,24.942
		C885.546,371.813,886.371,371.893,888.643,372.862z"/>
	<path class="st1" d="M1180.647,354.728c0,7.508,0.018,15.016-0.006,22.524c-0.017,5.33-0.071,10.66-0.149,15.989
		c-0.069,4.695-3.347,5.134-6.917,5.097c-3.419-0.035-6.917-0.026-7.35-4.706c-0.153-1.656-0.247-3.323-0.249-4.986
		c-0.018-17.326-0.083-34.653,0.049-51.979c0.026-3.415-1.189-7.634,3.723-9.24c5.022-1.642,11.693-0.225,14.432,3.786
		c6.01,8.803,11.671,17.843,17.5,26.77c3.235,4.956,6.521,9.879,9.687,14.671c3.951-1.533,2.787-4.25,2.815-6.29
		c0.148-10.661-0.057-21.327,0.158-31.985c0.126-6.239,1.248-7.154,6.855-7.284c6.048-0.14,7.523,1.044,7.58,7.534
		c0.157,17.991,0.149,35.986-0.004,53.977c-0.028,3.358,1.475,7.657-3.376,9.396c-5.173,1.854-12.291,0.128-15.205-4.069
		c-5.509-7.936-10.708-16.086-16.141-24.075c-3.623-5.328-6.799-11.038-11.056-15.87
		C1182.212,354.235,1181.43,354.481,1180.647,354.728z"/>
	<path class="st4" d="M987.929,362.987c0-9.32-0.164-18.643,0.055-27.958c0.16-6.813,0.961-7.792,7.385-7.892
		c14.641-0.229,29.289-0.06,43.934-0.07c4.188-0.003,7.031,1.227,7.112,6.185c0.091,5.608-0.907,7.016-6.615,7.447
		c-2.318,0.175-4.658,0.077-6.987,0.081c-7.323,0.014-14.649-0.125-21.967,0.065c-6.848,0.178-7.658,1.107-7.769,7.373
		c-0.12,6.805,0.88,7.963,8.005,8.141c7.318,0.183,14.648-0.077,21.966,0.128c6.559,0.184,7.485,1.149,7.569,6.483
		c0.085,5.402-1.018,6.68-7.188,6.88c-7.648,0.248-15.315-0.06-22.963,0.189c-6.351,0.207-7.532,1.68-7.358,7.819
		c0.157,5.547,1.038,6.577,7.374,6.719c9.648,0.216,19.308-0.062,28.955,0.179c6.088,0.152,7.351,2.051,6.964,8.093
		c-0.238,3.711-1.973,5.435-5.59,5.475c-1.997,0.022-3.993,0.086-5.99,0.088c-10.984,0.009-21.968,0.019-32.952,0.002
		c-13.946-0.021-13.951-0.032-13.975-14.456c-0.012-6.99-0.002-13.98-0.002-20.97C987.904,362.987,987.916,362.987,987.929,362.987z
		"/>
	<path class="st4" d="M1975,359.972c0,7.982,0.315,15.98-0.081,23.942c-0.478,9.616-4.715,13.953-14.356,14.311
		c-11.293,0.42-22.623,0.397-33.92,0.035c-10.015-0.321-14.752-4.605-15.122-14.811c-0.602-16.609-0.391-33.254-0.2-49.88
		c0.061-5.297,1.818-6.302,7.897-6.271c5.991,0.03,7.422,0.981,7.524,6.535c0.226,12.303,0.088,24.613,0.124,36.92
		c0.008,2.659,0.021,5.325,0.205,7.975c0.243,3.495,2.18,5.569,5.729,5.622c6.981,0.105,13.967,0.145,20.947,0.002
		c5.556-0.114,6.088-4.269,6.129-8.446c0.1-10.31,0.072-20.622,0.097-30.933c0.008-3.326-0.107-6.659,0.061-9.977
		c0.34-6.707,1.916-7.898,8.572-7.709c4.604,0.131,6.586,2.183,6.531,6.741c-0.104,8.647-0.03,17.296-0.03,25.944
		C1975.07,359.972,1975.035,359.972,1975,359.972z"/>
	<path class="st3" d="M2020.669,398.335c-5.987,0-11.994,0.32-17.955-0.073c-9.547-0.629-13.926-4.902-14.181-14.536
		c-0.369-13.959-0.353-27.942,0.007-41.902c0.237-9.188,4.127-13.682,13.361-14.234c12.924-0.772,25.919-0.404,38.883-0.399
		c5.091,0.002,5.566,3.574,5.562,7.593c-0.003,4.157-1.886,6.12-6,6.13c-8.98,0.022-17.965-0.072-26.939,0.172
		c-8.121,0.22-8.962,1.142-9.13,9.462c-0.161,7.98-0.144,15.967-0.014,23.948c0.152,9.38,0.669,9.845,10.515,9.974
		c7.982,0.105,15.969-0.106,23.947,0.097c6.711,0.17,8.145,2.101,7.624,8.457c-0.307,3.74-2.16,5.342-5.722,5.345
		c-6.652,0.005-13.304,0.001-19.956,0.001C2020.669,398.358,2020.669,398.346,2020.669,398.335z"/>
	<path class="st4" d="M1462.955,362.956c0.003-6.323-0.224-12.655,0.053-18.966c0.502-11.454,4.443-16.048,15.568-16.629
		c11.948-0.624,23.949-0.203,35.926-0.295c4.633-0.036,6.54,2.19,6.43,6.761c-0.133,5.568-1.026,6.861-7.092,7.054
		c-8.312,0.264-16.639,0-24.955,0.169c-8.917,0.182-9.873,1.088-10.017,9.661c-0.146,8.65-0.212,17.31,0.068,25.954
		c0.207,6.393,1.365,7.526,7.777,7.722c8.978,0.274,17.972-0.029,26.951,0.205c6.223,0.162,7.215,1.331,7.232,6.837
		c0.017,5.518-1.019,6.823-7.14,6.916c-11.976,0.181-23.969,0.328-35.932-0.126c-9.456-0.359-13.669-4.891-14.757-14.303
		c-0.076-0.66-0.108-1.328-0.109-1.993C1462.949,375.602,1462.952,369.279,1462.955,362.956z"/>
	<path class="st5" d="M1792.479,327.142c8.665,0,17.338-0.22,25.993,0.08c5.498,0.191,6.299,1.767,6.339,7.789
		c0.03,4.531-1.715,6.921-6.403,6.81c-1.331-0.031-2.666,0.068-3.998,0.063c-14.996-0.063-13.755-0.069-13.816,14.588
		c-0.048,11.332,0.106,22.667-0.081,33.996c-0.116,7.031-6.807,10.576-13.145,7.25c-3.002-1.575-2.532-4.459-2.555-7.013
		c-0.098-10.998-0.053-21.997-0.065-32.996c-0.003-2.666,0.088-5.339-0.057-7.998c-0.369-6.776-0.904-7.35-7.534-7.745
		c-3.323-0.198-6.676,0.066-9.993-0.18c-5.831-0.432-6.711-1.529-6.661-7.469c0.049-5.849,0.837-6.938,6.982-7.133
		c8.324-0.264,16.662-0.066,24.995-0.066C1792.479,327.126,1792.479,327.135,1792.479,327.142z"/>
	<path class="st5" d="M2091.186,327.118c8.316,0.005,16.639-0.199,24.947,0.072c6.054,0.197,7.106,1.53,7.183,7.07
		c0.079,5.628-1.109,6.964-6.745,7.549c-0.66,0.068-1.33,0.069-1.994,0.062c-17.155-0.186-15.48-0.859-15.584,16.789
		c-0.065,10.977-0.159,21.957-0.017,32.932c0.068,5.259-2.45,6.954-7.35,6.882c-6.553-0.096-8.056-0.859-8.197-7.057
		c-0.295-12.967-0.068-25.946-0.199-38.918c-0.103-10.124-0.451-10.372-10.868-10.592c-1.995-0.042-3.999,0.061-5.986-0.078
		c-6.489-0.451-7.433-1.688-7.539-7.78c-0.092-5.319,2.623-6.999,7.401-6.957C2074.553,327.166,2082.87,327.113,2091.186,327.118z"
		/>
	<path class="st5" d="M2136.438,362.533c0-9.313-0.145-18.628,0.05-27.937c0.136-6.545,1.309-7.496,7.581-7.548
		c6.476-0.053,8.125,1.031,8.181,7.038c0.18,19.288-0.021,38.58,0.106,57.869c0.037,5.608-3.108,6.561-7.703,6.503
		c-6.713-0.085-7.97-0.796-8.125-6.993c-0.242-9.639-0.064-19.289-0.064-28.934C2136.455,362.533,2136.446,362.533,2136.438,362.533
		z"/>
	<path class="st5" d="M1152.806,363.477c0.001,8.979,0.142,17.96-0.043,26.935c-0.149,7.218-1.187,8.062-8.109,8.008
		c-6.486-0.05-7.614-0.829-7.671-7.412c-0.163-18.953-0.166-37.911,0.023-56.864c0.06-6.067,1.656-7.13,8.125-7.096
		c6.302,0.033,7.49,0.979,7.623,7.498C1152.95,344.186,1152.805,353.833,1152.806,363.477z"/>
	<path class="st6" d="M811.908,361.785c0-9.299-0.209-18.605,0.076-27.895c0.182-5.921,1.885-6.879,8.348-6.96
		c4.864-0.061,7.511,1.697,7.495,6.875c-0.059,19.262,0.118,38.526-0.124,57.785c-0.076,6.041-1.793,6.899-8.292,6.932
		c-4.811,0.024-7.555-1.616-7.506-6.848c0.093-9.962,0.027-19.926,0.027-29.89C811.924,361.785,811.916,361.785,811.908,361.785z"/>
	<path class="st1" d="M2190.64,31.024c-0.007-13.081-0.044-13.124-13.255-13.129c-52.318-0.018-104.637-0.03-156.955,0.026
		c-5.991,0.006-12.025,0.074-17.966,0.757c-22.46,2.581-36.307,15.828-40.265,37.906c-1.124,6.272-1.444,12.562-1.443,18.903
		c0.01,61.316,0.002,122.632,0.005,183.947c0,2.332,0.077,4.665,0.086,6.997c0.014,3.687,1.913,5.549,5.531,5.553
		c14.993,0.015,29.987,0.003,44.98-0.052c3.157-0.011,4.953-1.67,5.059-4.908c0.088-2.663,0.153-5.329,0.155-7.993
		c0.016-19.661-0.06-39.322,0.049-58.983c0.049-8.829,0.457-9.322,8.833-9.347c33.323-0.101,66.647-0.098,99.971-0.009
		c8.992,0.024,9.206,0.333,9.261,9.938c0.095,16.661,0.025,33.324,0.035,49.986c0.003,4.998,0.096,9.997,0.043,14.995
		c-0.042,3.966,1.479,6.397,5.754,6.4c14.662,0.01,29.323-0.004,43.985,0.023c4.112,0.007,6.14-1.923,6.077-6.078
		c-0.041-2.665,0.063-5.331,0.063-7.996c0.005-37.656,0.003-75.312,0.003-112.968C2190.647,107.002,2190.66,69.013,2190.64,31.024z
		 M2134.67,131.685c-0.061,8.662-0.504,9.139-9.007,9.211c-16.964,0.145-33.929,0.043-50.894,0.045
		c-16.3,0.003-32.6,0.1-48.898-0.036c-8.666-0.073-9.167-0.555-9.233-8.99c-0.133-16.964-0.159-33.93,0.015-50.894
		c0.11-10.752,2.659-13.254,13.714-13.803c6.306-0.313,12.637-0.147,18.957-0.149c24.948-0.01,49.896-0.053,74.844,0.025
		c10.406,0.032,10.496,0.165,10.532,10.703C2134.761,95.76,2134.795,113.724,2134.67,131.685z"/>
	<path class="st1" d="M1912.812,53.741c-3.474-17.397-13.937-28.236-30.773-33.262c-8.759-2.615-17.761-2.565-26.747-2.572
		c-52.283-0.038-104.566-0.02-156.849-0.018c-1.998,0-4.001-0.065-5.993,0.053c-6.957,0.412-7.411,0.823-7.811,7.464
		c-0.16,2.655-0.067,5.326-0.068,7.99c-0.003,37.298-0.002,74.595-0.002,111.893c0,29.305,0,58.61,0,87.916
		c0,9.324-0.047,18.649,0.015,27.973c0.073,10.815,0.115,10.815,11.333,10.926c0.333,0.003,0.666,0.001,0.999,0.001
		c52.616-0.001,105.232-0.032,157.848,0.033c7.363,0.009,14.653-0.612,21.867-1.875c20.201-3.538,32.434-15.767,36.467-35.93
		c1.052-5.261,1.502-10.543,1.504-15.879c0.013-48.953,0.006-97.906,0.023-146.859C1914.628,65.575,1913.991,59.645,1912.812,53.741
		z M1858.902,206.117c-0.18,14.131-2.06,16.117-16.308,16.156c-30.648,0.083-61.296,0.071-91.944,0.005
		c-10.011-0.021-10.178-0.185-10.215-9.988c-0.085-22.653-0.027-45.306-0.028-67.959c-0.001-22.32-0.05-44.64,0.021-66.959
		c0.031-9.905,0.302-10.241,9.982-10.266c30.648-0.079,61.296-0.025,91.944,0.002c1.994,0.002,4.007,0.08,5.98,0.347
		c7.822,1.062,9.776,3.07,10.425,10.744c0.196,2.318,0.145,4.66,0.146,6.992c0.008,39.643,0.005,79.285,0.005,118.928
		C1858.909,204.784,1858.911,205.451,1858.902,206.117z"/>
	<path class="st4" d="M2229.85,341.697c-0.417-9.636-4.717-13.768-14.61-14.273c-11.941-0.61-23.964-0.647-35.902-0.008
		c-9.945,0.533-13.945,5.311-14.434,15.574c-0.316,6.639-0.06,13.306-0.06,19.96c-0.016,0-0.031,0-0.047,0
		c0,5.989-0.002,11.978,0.003,17.967c0,0.665,0.01,1.332,0.061,1.995c0.81,10.409,5.254,15.066,15.782,15.392
		c11.301,0.35,22.631,0.354,33.932-0.019c10.071-0.332,14.885-4.647,15.306-14.69C2230.465,369.65,2230.454,355.642,2229.85,341.697
		z M2214.333,377.831c-0.022,4.531-2.506,6.604-6.929,6.594c-6.654-0.015-13.308-0.01-19.963-0.016
		c-4.485-0.004-6.748-2.246-6.754-6.737c-0.006-4.991-0.001-9.981-0.001-14.972c-0.018,0-0.035,0-0.053,0
		c0-4.659,0.083-9.319-0.023-13.975c-0.111-4.861,1.961-7.59,6.99-7.614c6.654-0.032,13.308-0.056,19.961,0.018
		c4.373,0.048,6.811,2.205,6.805,6.758C2214.353,357.868,2214.381,367.849,2214.333,377.831z"/>
	<path class="st4" d="M1894.345,383.342c-2.849-4.163-4.695-7.745,0.417-11.849c3.231-2.594,3.823-6.869,3.861-10.964
		c0.047-4.984,0.125-9.97,0.031-14.951c-0.257-13.535-4.232-17.852-17.907-18.333c-11.616-0.408-23.257-0.247-34.885-0.118
		c-8.969,0.1-9.254,0.433-9.302,9.887c-0.088,17.278-0.029,34.556-0.014,51.834c0.001,1.659,0.025,3.329,0.211,4.975
		c0.614,5.438,4.877,4.437,8.369,4.55c3.48,0.113,6.875-0.207,7.039-4.918c0.126-3.652,0.246-7.306,0.229-10.959
		c-0.018-4.06,1.758-5.909,5.947-6.184c9.312-0.61,18.167-0.719,21.987,10.301c0.423,1.22,1.395,2.251,2.118,3.366
		c6.187,9.531,6.518,9.659,20.306,6.938C1899.552,391.713,1897.126,387.406,1894.345,383.342z M1872.581,362.589
		c-1.66,0.035-3.321,0.005-4.981,0.006c-1.66,0.001-3.321,0.025-4.981-0.003c-10.144-0.172-10.307-0.349-10.299-10.892
		c0.008-10.317,0.163-10.487,10.59-10.642c3.32-0.05,6.644-0.083,9.961,0.018c9.365,0.286,10.098,1.073,10.168,10.472
		C1883.114,361.633,1882.411,362.381,1872.581,362.589z"/>
	<path class="st4" d="M1116.937,383.286c-2.744-4.155-4.891-7.706,0.535-11.713c3.044-2.249,3.497-6.32,3.549-10.065
		c0.083-5.994,0.262-11.997,0.045-17.983c-0.411-11.321-4.401-15.749-15.813-16.195c-12.972-0.507-25.979-0.346-38.965-0.116
		c-6.499,0.115-7.23,0.972-7.289,7.948c-0.157,18.653-0.057,37.308-0.027,55.962c0.002,1.32,0.211,2.648,0.424,3.956
		c0.234,1.438,1.214,2.239,2.521,2.796c6.973,2.97,12.477-0.364,12.793-7.817c0.127-2.993,0.101-5.993,0.236-8.987
		c0.121-2.692,1.566-4.015,4.272-4.598c11.241-2.423,17.274-0.031,23.383,9.564c0.895,1.405,1.768,2.823,2.676,4.219
		c5.982,9.197,6.681,9.45,19.535,6.747C1123.082,391.829,1119.809,387.633,1116.937,383.286z M1106.097,354.458
		c-0.413,6.743-1.473,7.74-8.522,8.099c-2.652,0.135-5.316,0.022-7.974,0.022c0,0.012,0,0.023,0,0.035c-0.332,0-0.665,0-0.997,0
		c-13.985-0.022-16.027-2.512-13.841-16.311c0.493-3.109,1.812-5,4.973-5.047c6.64-0.099,13.285-0.118,19.925,0.01
		c3.915,0.075,6.124,2.244,6.319,6.223C1106.094,349.808,1106.239,352.145,1106.097,354.458z"/>
	<path class="st4" d="M1598.718,363.68c0-6.993,0.247-13.997-0.059-20.976c-0.434-9.88-4.128-14.171-13.768-15.024
		c-12.273-1.087-24.639-1.085-36.912,0.009c-9.794,0.873-13.442,4.931-13.677,14.991c-0.318,13.645-0.337,27.311,0.048,40.952
		c0.275,9.758,4.557,14.209,14.096,14.565c11.971,0.446,23.983,0.447,35.954,0.006c9.493-0.35,13.723-4.92,14.224-14.546
		c0.346-6.642,0.066-13.316,0.066-19.976C1598.699,363.68,1598.708,363.68,1598.718,363.68z M1582.968,363.376
		c-0.02,0-0.04,0-0.06,0c0,4.968,0.039,9.937-0.012,14.904c-0.041,4.023-2.147,6.102-6.175,6.115
		c-6.955,0.023-13.91,0.003-20.865-0.007c-4.09-0.006-6.199-2.317-6.255-6.153c-0.151-10.262-0.126-20.529-0.029-30.793
		c0.038-3.986,2.431-6.088,6.319-6.156c6.951-0.122,13.907-0.144,20.857-0.017c4.57,0.084,6.292,2.894,6.235,7.201
		C1582.917,353.438,1582.968,358.408,1582.968,363.376z"/>
	<path class="st4" d="M1411.198,386.066c-5.542-6.021-8.689-6.41-0.811-14.302c1.557-1.56,3.72-3.124,2.852-5.903
		c-1.712-5.479-8.796-7.194-13.125-3.198c-1.22,1.126-2.294,2.416-3.542,3.507c-1.421,1.242-3.042,1.406-4.457,0.027
		c-6.188-6.03-12.694-11.806-17.733-18.862c-2.22-3.108-0.477-5.806,3.359-6.173c3.97-0.38,6.378,1.145,6.726,5.379
		c0.351,4.269,3.641,4.161,6.647,4.127c2.561-0.028,5.456,0.543,6.988-2.5c4.161-8.265-1.476-19.395-10.728-20.575
		c-4.588-0.585-9.308-0.511-13.943-0.266c-11.446,0.605-14.643,4.109-14.667,15.512c-0.006,2.997-0.357,6.211,1.244,8.796
		c3.29,5.31,1.864,8.691-2.832,12.539c-6.883,5.642-8.544,19.69-4.245,27.559c1.708,3.126,4.28,5.639,7.655,5.812
		c10.717,0.55,22.022,4.005,31.277-4.923c1.997-1.926,4.3-2.366,6.066-0.145c6.014,7.567,13.959,6.037,23.196,5.325
		C1418.164,392.184,1414.302,389.438,1411.198,386.066z M1374.419,384.504c-3.634-0.138-7.684,0.446-7.803-5.142
		c-0.089-4.202,3.865-9.314,7.337-9.271c2.682,0.033,9.545,7.054,9.317,9.53C1383.018,382.344,1379.284,384.403,1374.419,384.504z"
		/>
</g>
</svg>
