<?xml version="1.0" encoding="utf-8"?>
<!-- Generator: Adobe Illustrator 27.4.0, SVG Export Plug-In . SVG Version: 6.00 Build 0)  -->
<svg version="1.1" id="Layer_1" xmlns="http://www.w3.org/2000/svg" xmlns:xlink="http://www.w3.org/1999/xlink" x="0px" y="0px"
	 viewBox="0 0 2308 718" style="enable-background:new 0 0 2308 718;" xml:space="preserve">
<style type="text/css">
	.st0{fill:#FFFFFF;}
	.st1{fill:#F8B004;}
</style>
<g>
	<path d="M0,691C0,469.7,0,248.3,0,27C3.7,12.7,12.6,3.6,27,0c751.3,0,1502.7,0,2254,0c8.2,2.3,15.9,5.8,20.7,13.3
		c2.7,4.2,4.3,9.1,6.3,13.7c0,221.3,0,442.7,0,664c-1,2.7-1.9,5.5-3,8.2c-4.7,10.4-13.3,16-24,18.8c-751.3,0-1502.7,0-2254,0
		c-7.5-2.2-14.9-5.1-19.4-11.8C4.4,701.6,2.5,696.1,0,691z M2139.9,352.3c0,0,0-0.2,0.1-0.3c5-2.3,10-4.6,14.9-7
		c33.4-16.5,55.5-41.9,62.7-79.1c4.8-24.9,3.9-49.8-0.8-74.5c-8.9-47.1-35.2-80.4-80-98.4c-30.9-12.5-63.4-16.6-96.4-16.7
		c-169.8-0.3-339.6-0.2-509.5-0.2c-1.6,0-3.2,0.2-4.5,0.2c0,187.9,0,375.1,0,562.6c1.9,0,3.4,0,4.9,0c175.3,0,350.6,0,526,0
		c32.9,0,65.6-2.3,97.1-12.9c39.7-13.4,66.9-39.3,78-80.2c10.2-37.5,10.5-75.5,1.3-113.2c-8.9-36.4-31.5-61-67.2-73
		C2157.9,356.7,2148.8,354.7,2139.9,352.3z M1444.2,278.8c1.4-25,1.3-49.5-1.7-73.8c-2.6-21-7.5-41.3-17.1-60.2
		c-16.7-32.9-44.3-51.9-79-61.8c-33.3-9.5-67.5-12.3-101.8-12.8c-62-0.9-124-1-186-0.9c-40.6,0.1-81.3,0.5-121.9,2
		c-32.7,1.2-64.9,6.4-96.1,16.8c-49.1,16.4-82.8,48.2-98.3,98.2c-8,25.6-11.8,52-12.1,78.7c-0.5,60.7-0.7,121.3-0.1,182
		c0.2,18.4,1.8,37,5.1,55.1c11.8,64.9,49.2,108.2,111.9,129.1c31,10.3,63.2,13.3,95.6,13.7c60.5,0.9,121,1.1,181.5,1
		c45.5-0.1,91-0.6,136.4-2c29-0.8,57.7-4.6,85.8-12.6c53.1-15.2,86.9-48.9,99.2-103.4c7.6-34,7.2-68.4,5.2-103
		c-0.2-4.3-3-3.5-5.5-3.5c-54.5,0-109,0-163.5,0c-1.8,0-3.5,0.2-5,0.2c-0.5,8.4-0.7,16.3-1.6,24c-2.8,25.3-15.9,42.5-40.5,50.4
		c-16.3,5.3-33.2,7.6-50.2,7.8c-52.8,0.7-105.6,1-158.5,0.9c-20.1-0.1-40.3-1.7-59.9-6.7c-27.5-6.9-47.7-22-55.4-50.4
		c-3-11.2-5.1-22.9-5.4-34.4c-0.8-34.1-0.7-68.3-0.3-102.5c0.1-12.3,1.4-24.6,3.2-36.8c4.6-30.5,21.5-50,52-57.2
		c21.3-5,42.9-6.3,64.5-6.5c54.8-0.4,109.7-0.3,164.5,0c15,0.1,29.9,1.9,44.3,6.8c21.1,7.2,34.1,21.4,37.2,43.8
		c0.8,5.9,0.9,11.8,1.3,17.9C1329.3,278.8,1386.5,278.8,1444.2,278.8z M77.8,395.3c-0.1,1.6-0.3,2.9-0.3,4.2c0,23.5-0.1,47,0,70.5
		c0.1,22.9,1.3,45.6,6.4,68c5.8,25.2,16,48,35.7,65.6c17.8,16,39.3,24.7,62.1,30.4c34.7,8.7,70.1,10.7,105.6,10.9
		c48.2,0.3,96.3,0.3,144.5,0c34.5-0.2,69-2,102.6-10.9c29.2-7.7,55.1-21.1,74.2-45.1c23.7-29.8,34.9-64.5,35.1-102.1
		c0.6-135.5,0.3-271,0.3-406.5c0-1.3-0.2-2.5-0.4-3.8c-57.2,0-114.1,0-171.5,0c0,2.5,0,4.6,0,6.8c0,112.5,0.1,225-0.1,337.5
		c0,13.1-0.7,26.3-2.4,39.3c-3,23.6-16,37.2-39.3,41.9c-8.1,1.6-16.5,2.7-24.8,2.8c-28.5,0.4-57,0.3-85.5,0.1
		c-9.1-0.1-18.3-0.8-27.4-1.9c-30.3-3.7-46.2-18.7-52-48.6c-3.4-17.5-3.3-35.1-2.6-52.8c0.1-2.1,0-4.2,0-6.3
		C184.5,395.3,131.3,395.3,77.8,395.3z M192.4,306.7c36.5,0,73-0.1,109.4,0.1c4.6,0,5.9-1.3,5.9-5.9c-0.1-72.6-0.1-145.3,0-217.9
		c0-5-1.6-6.1-6.3-6.1c-72.6,0.1-145.3,0.1-217.9,0c-4.8,0-6.2,1.4-6.2,6.2c0.1,72.5,0.1,144.9,0,217.4c0,4.7,1.2,6.3,6.1,6.2
		C119.8,306.6,156.1,306.7,192.4,306.7z"/>
	<path class="st0" d="M27,0C12.6,3.6,3.7,12.7,0,27C0,18.1,0,9.2,0,0C9,0,18,0,27,0z"/>
	<path class="st0" d="M2308,27c-2.1-4.6-3.7-9.5-6.3-13.7c-4.7-7.5-12.4-11-20.7-13.3c8.9,0,17.8,0,27,0C2308,9,2308,18,2308,27z"/>
	<path class="st0" d="M0,691c2.5,5.1,4.4,10.6,7.6,15.2c4.5,6.7,11.9,9.6,19.4,11.8c-9,0-18,0-27,0C0,709,0,700,0,691z"/>
	<path class="st0" d="M2281,718c10.7-2.8,19.3-8.4,24-18.8c1.2-2.7,2-5.5,3-8.2c0,9,0,18,0,27C2299,718,2290,718,2281,718z"/>
	<path class="st0" d="M2139.9,352.3c8.9,2.4,18,4.4,26.7,7.4c35.7,12,58.3,36.6,67.2,73c9.2,37.7,8.9,75.7-1.3,113.2
		c-11.1,40.9-38.3,66.8-78,80.2c-31.5,10.6-64.2,12.9-97.1,12.9c-175.3,0.1-350.6,0-526,0c-1.5,0-3,0-4.9,0c0-187.5,0-374.7,0-562.6
		c1.4-0.1,2.9-0.2,4.5-0.2c169.8,0,339.6-0.1,509.5,0.2c33,0.1,65.5,4.2,96.4,16.7c44.8,18.1,71.1,51.3,80,98.4
		c4.7,24.7,5.6,49.7,0.8,74.5c-7.2,37.1-29.4,62.6-62.7,79.1c-4.9,2.4-9.9,4.7-14.9,7C2139.9,352,2139.9,352.3,2139.9,352.3z
		 M1698.3,511.1c2.2,0,4.2,0,6.2,0c102.5,0,204.9,0,307.4,0c2.7,0,5.3,0.1,8-0.1c13.4-0.9,25-5.5,33.2-16.6c12.5-17,13-48.5,1-65.8
		c-9.9-14.2-24.2-18.8-40.8-18.7c-103.1,0.1-206.3,0-309.4,0c-1.8,0-3.6,0-5.6,0C1698.3,443.7,1698.3,477,1698.3,511.1z
		 M1698.2,295.1c13.5,0,26.7,0,39.8,0c87.8,0,175.7,0.1,263.5-0.1c24.8-0.1,38.8-12.6,42-37.1c4.1-31-12.4-56-47.8-55.8
		c-97,0.5-194,0.2-291,0.2c-2.1,0-4.2,0-6.5,0C1698.2,233.4,1698.2,263.9,1698.2,295.1z"/>
	<path class="st0" d="M1444.2,278.8c-57.7,0-114.8,0-172.3,0c-0.4-6.1-0.5-12.1-1.3-17.9c-3.1-22.4-16.2-36.6-37.2-43.8
		c-14.3-4.9-29.3-6.7-44.3-6.8c-54.8-0.2-109.7-0.3-164.5,0c-21.6,0.1-43.2,1.4-64.5,6.5c-30.6,7.3-47.5,26.8-52,57.2
		c-1.8,12.2-3.1,24.5-3.2,36.8c-0.4,34.2-0.4,68.3,0.3,102.5c0.3,11.5,2.4,23.2,5.4,34.4c7.6,28.3,27.9,43.4,55.4,50.4
		c19.7,5,39.8,6.6,59.9,6.7c52.8,0.1,105.6-0.2,158.5-0.9c17-0.2,33.9-2.6,50.2-7.8c24.6-8,37.7-25.1,40.5-50.4
		c0.9-7.8,1.1-15.6,1.6-24c1.5-0.1,3.3-0.2,5-0.2c54.5,0,109,0,163.5,0c2.6,0,5.3-0.8,5.5,3.5c2,34.5,2.4,68.9-5.2,103
		c-12.2,54.5-46,88.2-99.2,103.4c-28,8-56.8,11.8-85.8,12.6c-45.5,1.3-91,1.9-136.4,2c-60.5,0.1-121-0.1-181.5-1
		c-32.3-0.5-64.6-3.4-95.6-13.7c-62.7-20.9-100.2-64.2-111.9-129.1c-3.3-18.1-4.9-36.7-5.1-55.1c-0.6-60.7-0.4-121.3,0.1-182
		c0.2-26.7,4.1-53.1,12.1-78.7c15.5-50,49.2-81.8,98.3-98.2c31.2-10.4,63.4-15.6,96.1-16.8c40.6-1.5,81.3-1.9,121.9-2
		c62-0.1,124,0.1,186,0.9c34.3,0.5,68.5,3.3,101.8,12.8c34.7,9.9,62.3,28.9,79,61.8c9.6,18.9,14.5,39.2,17.1,60.2
		C1445.5,229.3,1445.6,253.8,1444.2,278.8z"/>
	<path class="st0" d="M77.8,395.3c53.5,0,106.7,0,160.5,0c0,2.1,0.1,4.2,0,6.3c-0.7,17.7-0.8,35.3,2.6,52.8
		c5.8,29.9,21.7,44.9,52,48.6c9.1,1.1,18.3,1.8,27.4,1.9c28.5,0.2,57,0.2,85.5-0.1c8.3-0.1,16.6-1.1,24.8-2.8
		c23.2-4.7,36.2-18.3,39.3-41.9c1.7-13,2.4-26.2,2.4-39.3c0.2-112.5,0.1-225,0.1-337.5c0-2.1,0-4.3,0-6.8c57.4,0,114.2,0,171.5,0
		c0.1,1.3,0.4,2.5,0.4,3.8c0,135.5,0.3,271-0.3,406.5c-0.2,37.6-11.4,72.3-35.1,102.1c-19.1,24-45,37.4-74.2,45.1
		c-33.6,8.9-68.1,10.7-102.6,10.9c-48.2,0.3-96.3,0.3-144.5,0c-35.5-0.2-70.9-2.2-105.6-10.9c-22.9-5.7-44.3-14.4-62.1-30.4
		C100,585.9,89.8,563.1,84,538c-5.1-22.4-6.4-45.1-6.4-68c-0.1-23.5,0-47,0-70.5C77.6,398.2,77.7,396.9,77.8,395.3z"/>
	<path class="st1" d="M192.4,306.7c-36.3,0-72.6-0.1-108.9,0.1c-4.9,0-6.1-1.5-6.1-6.2c0.1-72.5,0.1-144.9,0-217.4
		c0-4.8,1.4-6.2,6.2-6.2c72.6,0.1,145.3,0.1,217.9,0c4.7,0,6.3,1.1,6.3,6.1c-0.2,72.6-0.1,145.3,0,217.9c0,4.6-1.3,5.9-5.9,5.9
		C265.4,306.6,228.9,306.7,192.4,306.7z M119.1,119.6c-12.1-0.2-15.8,3.5-15.4,12.8c0.1,1.6,0.3,3.3,0.8,4.9
		c12.2,38.8,24.3,77.6,36.8,116.4c3,9.4,10.4,12.9,19.8,9.9c37.4-11.7,74.8-23.5,112.1-35.5c9.9-3.2,13.7-10.4,10.6-20.4
		c-5.5-17.4-11.4-34.7-17.3-52c-2.8-8.3-9.1-13-17.5-14.7c-6.3-1.3-12.8-2.2-19.1-3.2c-25.5-4.2-51.1-8.4-76.6-12.6
		C141,123.1,128.7,121.1,119.1,119.6z"/>
	<path d="M1698.3,511.1c0-34.1,0-67.4,0-101.3c2,0,3.8,0,5.6,0c103.1,0,206.3,0,309.4,0c16.6,0,30.9,4.5,40.8,18.7
		c12,17.3,11.5,48.8-1,65.8c-8.2,11.2-19.9,15.7-33.2,16.6c-2.7,0.2-5.3,0.1-8,0.1c-102.5,0-204.9,0-307.4,0
		C1702.5,511.1,1700.5,511.1,1698.3,511.1z"/>
	<path d="M1698.2,295.1c0-31.3,0-61.7,0-92.9c2.3,0,4.4,0,6.5,0c97,0,194,0.4,291-0.2c35.4-0.2,51.9,24.8,47.8,55.8
		c-3.2,24.6-17.2,37.1-42,37.1c-87.8,0.2-175.7,0.1-263.5,0.1C1724.9,295.1,1711.7,295.1,1698.2,295.1z"/>
	<path d="M119.1,119.6c9.7,1.6,22,3.5,34.2,5.5c25.5,4.2,51.1,8.4,76.6,12.6c6.4,1,12.8,1.9,19.1,3.2c8.4,1.7,14.6,6.5,17.5,14.7
		c5.9,17.3,11.8,34.6,17.3,52c3.1,10-0.7,17.2-10.6,20.4c-37.3,12-74.7,23.8-112.1,35.5c-9.5,3-16.8-0.6-19.8-9.9
		c-12.5-38.7-24.6-77.6-36.8-116.4c-0.5-1.6-0.7-3.3-0.8-4.9C103.3,123,107,119.3,119.1,119.6z M120.6,126.3c-9-0.6-11.2,2-9.6,8.8
		c0.3,1.5,0.7,2.9,1.1,4.3c11.2,35.6,22.4,71.3,33.7,106.9c3.3,10.4,7.2,12.4,17.5,9.2c34.6-10.7,69.1-21.5,103.7-32.3
		c11.1-3.5,12.9-7.2,9.2-18.1c-4.9-14.7-10-29.2-14.5-44c-2.8-9.1-8.6-13.4-17.8-14.8c-25.7-4-51.4-8.4-77.1-12.6
		C150.7,131,134.6,128.5,120.6,126.3z"/>
	<path class="st1" d="M120.6,126.3c14,2.2,30.1,4.8,46.1,7.4c25.7,4.2,51.4,8.6,77.1,12.6c9.2,1.4,15,5.7,17.8,14.8
		c4.5,14.8,9.7,29.3,14.5,44c3.7,11,1.8,14.7-9.2,18.1c-34.5,10.8-69.1,21.6-103.7,32.3c-10.4,3.2-14.3,1.2-17.5-9.2
		c-11.3-35.6-22.5-71.3-33.7-106.9c-0.4-1.4-0.8-2.9-1.1-4.3C109.4,128.3,111.6,125.7,120.6,126.3z M138.4,198.2
		c4.9,14.7,9.2,28.4,14,42c1.5,4.2,5.3,6.7,9.9,6.1c5.6-0.7,11.1-1.7,16.5-3.2c11.2-3.1,13.5-7.7,10-18.9c-4-12.7-8-25.4-11.9-38.1
		c-2.6-8.3-5.2-16.7-7.9-25.4c2.8-0.3,4.8-0.5,6.9-0.7c-3-18-3-18.2-18.9-21c-6.8-1.2-13.6-1.9-21.4-2.9c2.3,7.5,4.1,13.8,6.3,20.1
		c0.3,0.9,2,2.2,2.9,2.1c5.5-0.6,7.3,2.5,8.3,7.1c0.5,2.6,1.6,5.1,2.4,7.6c4.5,14.8,9.1,29.5,13.6,44.3c1.3,4.3,0.2,6.4-3.1,5.4
		c-1.4-0.4-2.9-2.1-3.5-3.6c-2.2-6.1-3.9-12.4-6.1-18.4c-0.5-1.4-2.2-3.5-3.3-3.5C148.4,197.1,144,197.7,138.4,198.2z M222.7,177
		c-2.1-6.9-4-12.5-5.7-18.2c-2-6.7-6.4-11-13.1-12.4c-6.1-1.3-12.4-2.3-18.7-2.7c-6.1-0.5-9,3.3-7.2,9.2c7.4,24.6,15,49.2,22.7,73.8
		c1.5,4.9,5.2,7.6,10.3,6.9c5.4-0.7,10.7-2.1,15.9-3.7c7.6-2.3,10.1-6.9,8-14.6c-1.8-6.4-3.9-12.7-6.1-19c-0.5-1.3-2.1-3-3.2-3
		c-3.6-0.1-7.2,0.5-11.6,0.9c1.3,4.6,2.7,8.6,3.6,12.8c0.3,1.7,0.1,4.9-0.9,5.4c-3.1,1.5-4.3-1.1-5.1-3.7c-3-9.8-6-19.7-8.9-29.5
		c-1.5-5-2.9-10-4.4-15.1c4.9-1,5.7-0.7,7.1,2.8c0.9,2.3,1.3,4.8,2.4,7.1c0.5,1.2,1.7,2.9,2.8,3C214.2,177.2,218,177,222.7,177z
		 M220.6,148.2c-0.3,0.6-0.6,1.1-0.9,1.7c2.6,8.2,5.3,16.4,7.9,24.5c4.9,15.3,9.9,30.6,14.8,45.9c0.6,2,0.9,4.5,4.1,3.6
		c5.6-1.6,11.3-2.8,16.7-4.8c6-2.1,8.9-7.2,7.1-13.5c-2.5-8.5-3-18.3-11.7-22.6c0.6-3.1,2-5.8,1.4-8.1c-1.1-5-2.7-10-5.1-14.5
		c-1.4-2.7-4.2-5.8-7-6.6C239,151.4,229.8,150,220.6,148.2z"/>
	<path d="M138.4,198.2c5.6-0.5,10.1-1.1,14.5-1c1.2,0,2.8,2.1,3.3,3.5c2.2,6.1,3.9,12.4,6.1,18.4c0.5,1.5,2.1,3.2,3.5,3.6
		c3.3,0.9,4.4-1.2,3.1-5.4c-4.5-14.8-9.1-29.6-13.6-44.3c-0.8-2.5-1.8-5-2.4-7.6c-0.9-4.6-2.8-7.7-8.3-7.1c-0.9,0.1-2.6-1.1-2.9-2.1
		c-2.1-6.3-4-12.6-6.3-20.1c7.8,1.1,14.7,1.7,21.4,2.9c16,2.9,16,3,18.9,21c-2,0.2-4.1,0.4-6.9,0.7c2.7,8.7,5.3,17.1,7.9,25.4
		c4,12.7,8,25.4,11.9,38.1c3.5,11.2,1.2,15.8-10,18.9c-5.4,1.5-11,2.5-16.5,3.2c-4.6,0.5-8.4-1.9-9.9-6.1
		C147.6,226.6,143.2,212.9,138.4,198.2z"/>
	<path d="M222.7,177c-4.7,0-8.5,0.2-12.2-0.1c-1-0.1-2.2-1.8-2.8-3c-1-2.3-1.5-4.8-2.4-7.1c-1.4-3.5-2.1-3.8-7.1-2.8
		c1.5,5.1,2.9,10.1,4.4,15.1c3,9.9,6,19.7,8.9,29.5c0.8,2.6,2,5.2,5.1,3.7c1-0.5,1.3-3.6,0.9-5.4c-0.8-4.1-2.2-8.2-3.6-12.8
		c4.4-0.4,8-1,11.6-0.9c1.1,0,2.8,1.7,3.2,3c2.2,6.3,4.3,12.6,6.1,19c2.1,7.6-0.4,12.2-8,14.6c-5.2,1.6-10.6,3-15.9,3.7
		c-5.1,0.7-8.7-2-10.3-6.9c-7.7-24.6-15.3-49.1-22.7-73.8c-1.8-5.9,1.1-9.7,7.2-9.2c6.3,0.5,12.5,1.4,18.7,2.7
		c6.7,1.4,11.1,5.7,13.1,12.4C218.7,164.4,220.6,170.1,222.7,177z"/>
	<path d="M220.6,148.2c9.2,1.8,18.4,3.3,27.4,5.7c2.8,0.8,5.6,3.9,7,6.6c2.3,4.5,4,9.5,5.1,14.5c0.5,2.3-0.8,5-1.4,8.1
		c8.7,4.3,9.2,14.1,11.7,22.6c1.8,6.3-1.1,11.4-7.1,13.5c-5.5,1.9-11.2,3.2-16.7,4.8c-3.3,0.9-3.5-1.6-4.1-3.6
		c-5-15.3-9.9-30.6-14.8-45.9c-2.6-8.2-5.3-16.4-7.9-24.5C220,149.3,220.3,148.7,220.6,148.2z M251.9,205.9c2.7-1.3,6.4-0.6,5.2-4.8
		c-2.2-7.7-2.9-10.2-9.7-7.9C248.8,197.3,250.3,201.4,251.9,205.9z M238.8,165.7c1,3.3,1.6,6.4,3,9.1c0.6,1.1,2.9,1.4,4.5,1.5
		c0.4,0,1.5-2.4,1.2-3.5C246.6,168.8,245.3,164.7,238.8,165.7z"/>
	<path class="st1" d="M251.9,205.9c-1.6-4.5-3-8.6-4.5-12.7c6.7-2.4,7.5,0.2,9.7,7.9C258.3,205.3,254.5,204.6,251.9,205.9z"/>
	<path class="st1" d="M238.8,165.7c6.5-1,7.8,3.1,8.7,7.2c0.2,1.1-0.9,3.5-1.2,3.5c-1.6-0.1-4-0.5-4.5-1.5
		C240.3,172.1,239.8,169,238.8,165.7z"/>
</g>
</svg>
