<?xml version="1.0" encoding="utf-8"?>
<!-- Generator: Adobe Illustrator 25.0.0, SVG Export Plug-In . SVG Version: 6.00 Build 0)  -->
<svg version="1.1" id="Layer_1" xmlns="http://www.w3.org/2000/svg" xmlns:xlink="http://www.w3.org/1999/xlink" x="0px" y="0px"
	 viewBox="0 0 1194.895 394.931" style="enable-background:new 0 0 1194.895 394.931;" xml:space="preserve">
<style type="text/css">
	.st0{fill:#F25C17;}
	.st1{fill:#F25C18;}
	.st2{fill:#F25D19;}
</style>
<g>
	<path class="st0" d="M677.499,323.878c-5.425,12.632-10.507,24.437-15.567,36.252c-4.43,10.345-8.896,20.675-13.211,31.067
		c-1.082,2.606-2.419,3.721-5.489,3.718c-104.481-0.097-208.962-0.112-313.442,0.006c-5.575,0.006-3.463-2.478-2.383-4.988
		c26.286-61.089,52.577-122.176,78.872-183.261c28.912-67.162,57.872-134.303,86.638-201.527c1.724-4.029,3.752-5.16,8.023-5.147
		c53.323,0.164,106.647,0.107,159.97,0.107c1.826,0,3.652,0,6.337,0c-36.626,85.528-73.043,170.57-109.726,256.23
		c2.195,0,3.647,0,5.099,0c40.326-0.006,80.652-0.055,120.977,0.06c3.466,0.01,5.129-0.935,6.555-4.255
		c24.142-56.249,48.066-112.597,72.855-168.564c19.635-44.329,54.818-70.497,101.365-82.186c4.117-1.034,8.502-1.33,12.869-1.328
		c104.481,0.056,208.962,0.043,313.442,0.042c1.159,0,2.317,0,4.209,0c-3.779,8.927-7.367,17.404-10.958,25.88
		c-14.008,33.065-28.081,66.103-41.931,99.233c-1.463,3.5-3.226,4.522-6.928,4.516c-69.32-0.117-138.641,0.013-207.961-0.212
		c-8.582-0.028-13.905,3.421-17.094,10.901c-14.344,33.641-28.655,67.296-42.964,100.951c-0.452,1.062-0.81,2.173-1.11,3.289
		c-2.327,8.67-0.01,11.646,9.097,11.652c19.163,0.012,38.327-0.098,57.488,0.098c3.427,0.035,5.057-0.951,6.071-4.176
		c1.825-5.802,4.051-11.478,6.298-17.732c-14.412,0-28.309,0-42.835,0c4.466-10.61,8.678-20.651,12.918-30.68
		c5.99-14.169,12.093-28.292,17.931-42.523c1.275-3.108,2.922-4.052,6.268-4.046c61.155,0.112,122.311,0.12,183.466,0
		c4.237-0.008,4.718,0.937,3.128,4.661c-32.547,76.246-65.022,152.523-97.426,228.829c-1.253,2.951-2.626,4.189-6.098,4.184
		c-85.984-0.126-171.969,0.09-257.952-0.223c-26.639-0.097-50.346-8.396-68.34-29.208
		C685.838,353.791,680.271,339.984,677.499,323.878z"/>
	<path class="st0" d="M126.84,394.836c-40.814,0-81.627-0.048-122.44,0.074c-4.149,0.012-5.484-0.184-3.488-4.861
		c18.433-43.191,36.654-86.473,54.792-129.789c1.304-3.114,2.865-4.033,6.182-4.022c39.147,0.128,78.295,0.029,117.442,0.171
		c3.564,0.013,5.187-1.121,6.556-4.339c34.968-82.166,70.089-164.268,104.98-246.467c1.873-4.413,4.099-5.617,8.692-5.603
		c53.14,0.166,106.281,0.106,159.422,0.106c6.499,0,6.499,0.001,3.882,6.145c-48.362,113.542-96.65,227.116-145.141,340.603
		c-11.301,26.449-33.411,39.742-60.047,46.974c-3.878,1.053-7.885,1.029-11.889,1.026
		C206.134,394.824,166.487,394.836,126.84,394.836z"/>
	<path class="st1" d="M1098.999,336.271c-15.858-0.134-29.124,13.154-29.132,29.179c-0.007,16.065,13.199,29.304,29.098,29.171
		c15.837-0.133,28.854-13.152,28.891-28.896C1127.895,349.622,1114.946,336.405,1098.999,336.271z M1098.306,388.91
		c-12.516-0.147-22.95-10.73-23.03-23.358c-0.082-13.012,10.664-23.618,23.846-23.534c12.947,0.082,23.216,10.559,23.122,23.589
		C1122.148,378.851,1111.654,389.067,1098.306,388.91z"/>
	<path class="st2" d="M1110.972,376.649c-0.546-3.339,0.759-6.989-1.987-9.964c-0.918-0.995,0.477-1.659,0.943-2.441
		c3.751-6.301,0.625-12.437-6.68-13.14c-15.218-1.465-15.218-1.465-15.218,13.452c0,0.166,0,0.332,0.002,0.497
		c0.002,3.813,0.002,7.626,0.002,11.439c0,0.166,0.013,0.332,0.002,0.497c-0.152,2.203,1.022,2.816,3.051,2.832
		c1.982,0.016,3.254-0.42,3.102-2.706c-0.055-0.825-0.006-1.657-0.001-2.486c0.037-6.322,0.055-6.22,6.382-5.893
		c2.682,0.139,3.999,1.202,4.148,3.792c0.086,1.489,0.144,2.981,0.152,4.472c0.02,3.502,2.62,2.661,4.651,2.779
		C1112.709,379.965,1111.218,378.155,1110.972,376.649z M1099.519,363.6c-3.047,0.087-5.587,0.595-5.488-3.474
		c0.074-3.014,0.95-4.302,4.025-3.938c2.948,0.349,7.069-0.975,7.231,3.787C1105.434,364.243,1101.527,363.133,1099.519,363.6z"/>
</g>
</svg>
