<?xml version="1.0" encoding="utf-8"?>
<!-- Generator: Adobe Illustrator 22.1.0, SVG Export Plug-In . SVG Version: 6.00 Build 0)  -->
<svg version="1.1" id="Layer_1" xmlns="http://www.w3.org/2000/svg" xmlns:xlink="http://www.w3.org/1999/xlink" x="0px" y="0px"
	 viewBox="0 0 855 160" style="enable-background:new 0 0 855 160;" xml:space="preserve">
<style type="text/css">
	.st0{fill:#0E1271;}
	.st1{fill:#101674;}
	.st2{fill:#575A9D;}
	.st3{fill:#151A77;}
	.st4{fill:#7E80B2;}
	.st5{fill:#FEFEFE;}
</style>
<path class="st0" d="M0.1,37c15.5,0.1,31,0.3,46.5,0.1c3.9,0,4.7,1.1,4.6,4.8C50.9,59,51,76.2,51,93.5c1.5,0,1.6-1.3,2-2.2
	c7.1-16.6,14.3-33.2,21.2-49.9c1.4-3.3,3.2-4.3,6.7-4.3c15.5,0.2,31,0.1,46.5,0.1c1.4,0,2.9,0,5,0c-5.1,11.1-9.9,21.6-14.7,32.1
	c-3.7,8-7.3,16-11.1,23.9c-1,2.2-1,3.8,0.1,6c8.8,17.7,17.4,35.5,26,53.3c0.5,1,1.4,1.9,1,3.6c-15.2,0-30.5-0.6-45.7,0.2
	c-8.3,0.4-12.1-2-15.2-9.8c-6.3-16.2-13.8-31.8-21.7-47.7c0,1.3,0,2.7,0,4c0,16.3-0.1,32.7,0.1,49c0,3.5-0.9,4.4-4.4,4.4
	c-15.2-0.2-30.3,0-45.5,0c-0.5,0.3-0.9,0.3-1.2-0.2c0-0.7,0-1.3,0-2c0.8-1.2,0.5-2.6,0.5-3.9c0-35.7,0-71.5,0-107.2
	c0-1.3,0.3-2.7-0.5-3.9C0.1,38.3,0.1,37.7,0.1,37z"/>
<path class="st1" d="M648.1,1c-0.1,14.2-0.1,28.4-0.1,42.6c0,0.9-0.3,2.1,1.1,2.3c-0.7,2.2-1.8,1.4-2.6,0.2c-1.1-1.7-1-3.8-1-5.8
	c-0.1-10.2,0-20.3,0-30.5c0-5.7-0.5-6.1-5.9-6.2c-10-0.1-20-0.1-30,0c-5.2,0.1-5.8,0.7-5.9,5.8c-0.1,7.5,0.1,15-0.1,22.5
	c-0.1,6.3-1.3,7.6-7.7,7.6c-21.7,0.1-43.3,0.1-65,0c-2,0-4,0-5.6-1.6c1.5-1.7,3.4-0.8,5.1-0.8c22.1-0.1,44.3-0.1,66.4,0
	c3.4,0,4.6-0.7,4.5-4.3c-0.3-10.6-0.1-21.3-0.2-32C616.7,1,632.4,1,648.1,1z"/>
<path class="st2" d="M855.1,121l-0.4,0.2l-0.4,0c-2.4-2.3-1.7-5.3-1.7-8c-0.1-22.1,0-44.2,0-66.3c0-7.2-0.1-7.3-7.2-7.3
	c-10.8,0-21.6,0-32.4,0c-2.4,0-5.1,0.4-7-1.7c1.1-1.5,2.7-0.8,4.1-0.8c15,0,30.1,0,45.1,0C855.1,65,855.1,93,855.1,121z"/>
<path class="st1" d="M0.1,39c1.6,1.5,1,3.4,1,5.2c0,34.9,0,69.8,0,104.7c0,1.7,0.7,3.7-1,5.2C0.1,115.7,0.1,77.3,0.1,39z"/>
<path class="st3" d="M199.4,160.2c-0.1,0.3-0.2,0.6-0.3,0.8c-6.3,0-12.7,0-19,0c0-0.3-0.1-0.6-0.3-0.9
	C186.3,157.4,192.9,157.3,199.4,160.2z"/>
<path class="st4" d="M0.1,156c0.4,0.1,0.8,0.1,1.2,0.2c-0.1,1.6-0.1,3.2-0.2,4.8C-1.2,159.7,0.7,157.6,0.1,156z"/>
<path class="st0" d="M538.7,156.1c-16.5,0-32.5-0.1-48.5,0.1c-2.8,0-3.6-1.2-4.2-3.7c-4-16.4-8.2-32.8-12.3-49.3
	c-1.6,0.6-1.4,2.1-1.7,3.3c-3.9,15.3-7.9,30.6-11.7,45.9c-0.7,2.8-1.7,3.7-4.6,3.7c-28.7-0.1-57.3-0.2-86,0.1c-4.7,0-4.1-3-4.5-5.4
	c-1.6-10.7-3-21.4-4.5-32.1c-0.1-0.6,0.1-1.3-1.3-1.6c-3.5,11.5-7.1,23-10.4,34.5c-1,3.4-2.3,4.8-6.1,4.6c-6.5-0.4-13-0.4-19.5,0
	c-3.4,0.2-4.6-1.3-5.4-4.2c-3.3-11.8-6.8-23.6-11-35.3c-2.1,11.4-4.3,22.9-6.1,34.4c-0.6,3.8-1.8,5.3-5.9,5.2
	c-11.8-0.3-23.7-0.2-35.5,0c-3.3,0.1-4.2-0.7-3.7-4.1c3.6-22.5,7-45,10.5-67.5c2.2-14.3,4.5-28.6,6.5-42.9c0.4-3.1,1.2-4.6,4.8-4.6
	c12.3,0.2,24.7,0.2,37,0c3.2-0.1,4.3,1.2,5.2,3.9c4.3,13.4,8.7,26.9,13.5,41.5c2.7-8.3,5.2-15.5,7.5-22.7c2.1-6.3,4.2-12.6,6.1-19
	c0.9-3,2.5-3.7,5.4-3.7c12.2,0.2,24.3,0.2,36.5,0c3.8-0.1,5.1,1.1,5.7,4.8c4.7,29.8,9.5,59.5,14.3,89.2c0.7,4.1,1.3,8.2,2,12.3
	c1.6-0.5,1.6-1.9,1.9-2.9c11.4-32.7,22.8-65.4,34-98.3c1.4-4.1,3.3-5.2,7.3-5.1c13,0.3,26,0.1,39,0.1c2.5,0,4.2,0.1,5.2,3.1
	c13.2,38,26.5,75.9,39.8,113.9C538.5,154.7,538.5,155.1,538.7,156.1z"/>
<path class="st0" d="M525.3,38c23.8,0,47.6-0.1,71.4,0.1c4.5,0,5.7-1.3,5.5-5.6c-0.3-8.8,0-17.6-0.1-26.5c0-3,0.9-4.1,4-4.1
	c12.3,0.1,24.6,0.2,36.9,0c3.4,0,4.2,1.3,4.2,4.4c-0.1,12.1-0.1,24.3,0,36.4c0,1.1-1.5,3.8,1.9,3.2c11.4-10.1,25.3-12.9,39.9-12.6
	c13.8,0.3,26.8,4.4,39,11.1c2.8,1.5,3.8,2.7,2.4,6.1c-3.5,8.3-6.7,16.6-9.6,25.1c-1.2,3.7-2.5,3.1-5.1,1.5c-7-4.3-14.7-6.8-22.9-7.9
	c-1.2-0.1-2.3-0.3-3.5-0.3c-2.6,0.1-5.4,0.7-5.9,3.6c-0.5,2.8,2.1,4,4.4,4.6c5.1,1.4,10.4,2.4,15.4,4c18,5.7,28.7,19.1,28.9,35.8
	c0.2,18.3-12.2,34.2-31.4,38.7c-24.3,5.7-47.5,2-69.4-10.1c-2.6-1.4-3.4-2.7-2.1-5.8c3.6-8.2,6.9-16.5,10-24.9
	c1.3-3.5,2.5-3.2,5.2-1.5c9,5.5,18.4,10.1,29.1,10.9c3.8,0.3,8.7,1.1,9.5-3.8c0.9-5.3-4.4-5.6-7.9-6.3c-6.4-1.3-12.7-2.7-18.6-5.4
	c-22.7-10.2-29.1-38.8-13-57.7c0.7-0.9,1.5-1.7,2.9-3.3c-10.1,0-19.5,0-28.9,0c-5,0-11.7-1.7-14.5,0.8c-3.2,2.9-0.9,9.7-1,14.8
	c-0.1,29.3-0.1,58.7,0,88c0,3.6-0.6,4.8-4.6,4.8c-13.7-0.3-27.3-0.3-41,0c-4,0.1-4.5-1.3-4.5-4.8c0.2-21.5-0.1-43,0.2-64.5
	c0.1-4.3-1.2-5.3-5.3-5c-6.3,0.4-12.7,0.1-19,0.1c-1.8,0-3.2,0-3.2-2.5C525.2,65.6,524.4,51.8,525.3,38z"/>
<path class="st0" d="M199.4,160.2c-6.5,0-13.1,0-19.6,0c-23.9-2.1-47.1-23.6-52.6-48.7c-7.7-35.1,14.4-70,48.9-77.2
	c35.4-7.4,69.4,15.1,76.6,50.7C259.9,120,233.6,157.2,199.4,160.2z"/>
<path class="st0" d="M805.9,37.9c14.5,0,28.9,0.2,43.3,0c4.1-0.1,4.9,1.3,4.9,5.1c-0.1,26.1,0,52.1,0.1,78.2
	c-2.2,16.6-12,27.2-27.3,32.4c-18.5,6.3-37.4,6.2-55.8-0.5c-17.7-6.4-27-20.2-27.1-38.9c0-24.2,0.1-48.3-0.1-72.5
	c0-3.8,1-4.7,4.7-4.7c13.3,0.2,26.7,0.3,40,0c4.2-0.1,4.9,1.3,4.8,5.1c-0.2,21.3-0.1,42.6-0.1,64c0,1.3-0.1,2.7,0,4
	c0.5,3.7,2.6,5.9,6.3,5.7c3.6-0.2,5.7-2.3,5.7-6.2c0-4.8,0-9.7,0-14.5c0-17.5,0-35,0-52.5C805.4,41.1,804.8,39.4,805.9,37.9z"/>
<path class="st5" d="M206.4,96.8c0.1,9.4-7.2,16.8-16.5,17c-9.2,0.1-16.7-7.5-16.7-16.8c0-9.1,7.3-16.5,16.3-16.7
	C198.7,80.1,206.3,87.5,206.4,96.8z"/>
</svg>
