<?xml version="1.0" encoding="utf-8"?>
<!-- Generator: Adobe Illustrator 25.0.0, SVG Export Plug-In . SVG Version: 6.00 Build 0)  -->
<svg version="1.1" id="Layer_1" xmlns="http://www.w3.org/2000/svg" xmlns:xlink="http://www.w3.org/1999/xlink" x="0px" y="0px"
	 viewBox="0 0 200 200" style="enable-background:new 0 0 200 200;" xml:space="preserve">
<style type="text/css">
	.st0{fill:url(#SVGID_1_);}
	.st1{fill:url(#SVGID_2_);}
	.st2{fill:url(#SVGID_3_);}
	.st3{fill:url(#SVGID_4_);}
	.st4{fill:url(#SVGID_5_);}
	.st5{fill:url(#SVGID_6_);}
	.st6{fill:url(#SVGID_7_);}
	.st7{fill:url(#SVGID_8_);}
	.st8{fill:url(#SVGID_9_);}
	.st9{fill:url(#SVGID_10_);}
	.st10{fill:url(#SVGID_11_);}
	.st11{fill:url(#SVGID_12_);}
	.st12{fill:url(#SVGID_13_);}
	.st13{fill:url(#SVGID_14_);}
	.st14{fill:url(#SVGID_15_);}
	.st15{fill:url(#SVGID_16_);}
	.st16{fill:url(#SVGID_17_);}
	.st17{fill:url(#SVGID_18_);}
	.st18{fill:url(#SVGID_19_);}
	.st19{fill:url(#SVGID_20_);}
	.st20{fill:url(#SVGID_21_);}
	.st21{fill:url(#SVGID_22_);}
	.st22{fill:url(#SVGID_23_);}
	.st23{fill:url(#SVGID_24_);}
	.st24{fill:url(#SVGID_25_);}
	.st25{fill:url(#SVGID_26_);}
	.st26{fill:url(#SVGID_27_);}
	.st27{fill:url(#SVGID_28_);}
	.st28{fill:url(#SVGID_29_);}
	.st29{fill:url(#SVGID_30_);}
	.st30{fill:#232D69;}
</style>
<g>
	<g>
		
			<radialGradient id="SVGID_1_" cx="100" cy="102" r="99.5" gradientTransform="matrix(1 0 0 -1 0 202)" gradientUnits="userSpaceOnUse">
			<stop  offset="0.9617" style="stop-color:#FEFEFE"/>
			<stop  offset="0.9896" style="stop-color:#E2E3E4"/>
			<stop  offset="1" style="stop-color:#D6D7D9"/>
		</radialGradient>
		<path class="st0" d="M176.8,40.4l0.2,0.2c13.2,17.1,20.2,37.6,20.2,59.4c0,26-10.1,50.4-28.5,68.7c-18.4,18.4-42.8,28.5-68.7,28.5
			c-26,0-50.4-10.1-68.7-28.5C12.9,150.4,2.8,126,2.8,100s10.1-50.4,28.5-68.7C49.6,12.9,74,2.8,100,2.8c21.8,0,42.4,7,59.5,20.3
			l0.2,0.2l-0.2-3C142.9,7.9,122.3,0.5,100,0.5C45,0.5,0.5,45,0.5,100S45,199.5,100,199.5s99.5-44.5,99.5-99.5
			c0-22.3-7.3-42.9-19.7-59.4L176.8,40.4z"/>
		
			<linearGradient id="SVGID_2_" gradientUnits="userSpaceOnUse" x1="65.9575" y1="195.5363" x2="134.0459" y2="8.465" gradientTransform="matrix(1 0 0 -1 0 202)">
			<stop  offset="6.076279e-02" style="stop-color:#D6D7D9"/>
			<stop  offset="0.2946" style="stop-color:#777C82"/>
			<stop  offset="0.7011" style="stop-color:#5C6269"/>
			<stop  offset="1" style="stop-color:#31383F"/>
		</linearGradient>
		<path class="st1" d="M176.8,40.4l0.2,0.2c13.2,17.1,20.2,37.6,20.2,59.4c0,26-10.1,50.4-28.5,68.7c-18.4,18.4-42.8,28.5-68.7,28.5
			c-26,0-50.4-10.1-68.7-28.5C12.9,150.4,2.8,126,2.8,100s10.1-50.4,28.5-68.7C49.6,12.9,74,2.8,100,2.8c21.8,0,42.4,7,59.5,20.3
			l0.2,0.2l-0.2-3C142.9,7.9,122.3,0.5,100,0.5C45,0.5,0.5,45,0.5,100S45,199.5,100,199.5s99.5-44.5,99.5-99.5
			c0-22.3-7.3-42.9-19.7-59.4L176.8,40.4z"/>
	</g>
	
		<radialGradient id="SVGID_3_" cx="94.9715" cy="142.486" r="138.4615" fx="85.083" fy="142.5947" gradientTransform="matrix(1 0 0 -1 0 202)" gradientUnits="userSpaceOnUse">
		<stop  offset="0" style="stop-color:#F0F0F1"/>
		<stop  offset="0.4662" style="stop-color:#EEEEEF"/>
		<stop  offset="0.6339" style="stop-color:#E7E8E9"/>
		<stop  offset="0.6982" style="stop-color:#E2E3E4"/>
		<stop  offset="0.8646" style="stop-color:#DBDCDE"/>
	</radialGradient>
	<path class="st2" d="M26.7,84.2c3-14.1,10-26.9,20.3-37.2c14.2-14.2,33-22,53-22s38.8,7.8,53,22c10.3,10.3,17.3,23.1,20.3,37.2
		H26.7z M100,175c-20,0-38.8-7.8-53-22c-10.3-10.3-17.3-23.1-20.3-37.2h146.6c-3,14.1-10,26.9-20.3,37.2
		C138.8,167.2,120,175,100,175z M177.3,40.4l7.6-7.5c3.7,4.6,7,9.6,9.8,14.7h1.6V3.8h-43.7v1.6c5.1,2.9,10.1,6.2,14.7,9.9l-7.5,7.5
		C142.7,9.6,121.9,2.4,100,2.4C73.9,2.4,49.4,12.6,31,31S2.4,73.9,2.4,100s10.1,50.6,28.6,69c18.4,18.4,42.9,28.6,69,28.6
		s50.6-10.1,69-28.6c18.4-18.4,28.6-42.9,28.6-69C197.6,78.1,190.4,57.4,177.3,40.4z"/>
	
		<radialGradient id="SVGID_4_" cx="100.8253" cy="171.2693" r="169.2365" gradientTransform="matrix(1 0 0 -1 0 202)" gradientUnits="userSpaceOnUse">
		<stop  offset="0" style="stop-color:#FFFFFF"/>
		<stop  offset="0.561" style="stop-color:#FDFDFD"/>
		<stop  offset="0.7629" style="stop-color:#F6F7F7"/>
		<stop  offset="0.9065" style="stop-color:#EBEBEC"/>
		<stop  offset="0.9361" style="stop-color:#E7E8E9"/>
	</radialGradient>
	<path class="st3" d="M26.7,84.2c3-14.1,10-26.9,20.3-37.2c14.2-14.2,33-22,53-22s38.8,7.8,53,22c10.3,10.3,17.3,23.1,20.3,37.2
		H26.7z M100,175c-20,0-38.8-7.8-53-22c-10.3-10.3-17.3-23.1-20.3-37.2h146.6c-3,14.1-10,26.9-20.3,37.2
		C138.8,167.2,120,175,100,175z M177.3,40.4l7.6-7.5c3.7,4.6,7,9.6,9.8,14.7h1.6V3.8h-43.7v1.6c5.1,2.9,10.1,6.2,14.7,9.9l-7.5,7.5
		C142.7,9.6,121.9,2.4,100,2.4C73.9,2.4,49.4,12.6,31,31S2.4,73.9,2.4,100s10.1,50.6,28.6,69c18.4,18.4,42.9,28.6,69,28.6
		s50.6-10.1,69-28.6c18.4-18.4,28.6-42.9,28.6-69C197.6,78.1,190.4,57.4,177.3,40.4z"/>
	
		<radialGradient id="SVGID_5_" cx="104.5676" cy="169.8651" r="161.5956" fx="101.6184" fy="169.8957" gradientTransform="matrix(1 0 0 -1 0 202)" gradientUnits="userSpaceOnUse">
		<stop  offset="0" style="stop-color:#F8F8F8"/>
		<stop  offset="0.5137" style="stop-color:#EFF0F0"/>
		<stop  offset="1" style="stop-color:#BCBEC1"/>
	</radialGradient>
	<path class="st4" d="M26.7,84.2c3-14.1,10-26.9,20.3-37.2c14.2-14.2,33-22,53-22s38.8,7.8,53,22c10.3,10.3,17.3,23.1,20.3,37.2
		H26.7z M100,175c-20,0-38.8-7.8-53-22c-10.3-10.3-17.3-23.1-20.3-37.2h146.6c-3,14.1-10,26.9-20.3,37.2
		C138.8,167.2,120,175,100,175z M177.3,40.4l7.6-7.5c3.7,4.6,7,9.6,9.8,14.7h1.6V3.8h-43.7v1.6c5.1,2.9,10.1,6.2,14.7,9.9l-7.5,7.5
		C142.7,9.6,121.9,2.4,100,2.4C73.9,2.4,49.4,12.6,31,31S2.4,73.9,2.4,100s10.1,50.6,28.6,69c18.4,18.4,42.9,28.6,69,28.6
		s50.6-10.1,69-28.6c18.4-18.4,28.6-42.9,28.6-69C197.6,78.1,190.4,57.4,177.3,40.4z"/>
	<g>
		
			<linearGradient id="SVGID_6_" gradientUnits="userSpaceOnUse" x1="25.1" y1="147.4" x2="174.9" y2="147.4" gradientTransform="matrix(1 0 0 -1 0 202)">
			<stop  offset="0" style="stop-color:#262D35"/>
			<stop  offset="0.67" style="stop-color:#5C6269"/>
			<stop  offset="0.6777" style="stop-color:#61676D"/>
			<stop  offset="0.7861" style="stop-color:#A0A3A7"/>
			<stop  offset="0.8653" style="stop-color:#C7C9CB"/>
			<stop  offset="0.9065" style="stop-color:#D6D7D9"/>
			<stop  offset="1" style="stop-color:#A5A8AC"/>
		</linearGradient>
		<path class="st5" d="M168.7,83.2c-3-12.5-9.4-23.9-18.7-33.2c-13.4-13.4-31.1-20.7-50-20.7S63.4,36.6,50,50
			c-9.3,9.3-15.7,20.7-18.7,33.2l-5.8,1.9l-0.4,0.4l0.1-0.4c2.9-14.8,10.1-28.3,20.9-39C60.5,31.7,79.6,23.7,100,23.7
			s39.5,7.9,53.9,22.3c10.8,10.7,18,24.2,20.9,39l0.1,0.4l-0.4-0.4L168.7,83.2z"/>
		
			<linearGradient id="SVGID_7_" gradientUnits="userSpaceOnUse" x1="25.1" y1="56.65" x2="174.9" y2="56.65" gradientTransform="matrix(1 0 0 -1 0 202)">
			<stop  offset="0" style="stop-color:#31383F"/>
			<stop  offset="0.1374" style="stop-color:#5C6269"/>
			<stop  offset="0.1429" style="stop-color:#60666C"/>
			<stop  offset="0.2254" style="stop-color:#92969B"/>
			<stop  offset="0.2975" style="stop-color:#B7B9BD"/>
			<stop  offset="0.3556" style="stop-color:#CECFD1"/>
			<stop  offset="0.3925" style="stop-color:#D6D7D9"/>
			<stop  offset="0.4305" style="stop-color:#D9DADC"/>
			<stop  offset="0.687" style="stop-color:#EAEAEB"/>
			<stop  offset="0.8792" style="stop-color:#F0F0F1"/>
			<stop  offset="0.8933" style="stop-color:#D7D8DA"/>
			<stop  offset="0.949" style="stop-color:#777C82"/>
			<stop  offset="1" style="stop-color:#3C434A"/>
		</linearGradient>
		<path class="st6" d="M168.7,116.8c-3,12.5-9.4,23.9-18.7,33.2c-13.4,13.4-31.1,20.7-50,20.7s-36.6-7.4-50-20.7
			c-9.3-9.3-15.7-20.7-18.7-33.2l-5.8-1.9l-0.4-0.4l0.1,0.4c2.9,14.8,10.1,28.3,20.9,39c14.4,14.4,33.6,22.3,53.9,22.3
			c20.4,0,39.5-7.9,53.9-22.3c10.8-10.8,18-24.2,20.9-39l0.1-0.4l-0.4,0.4L168.7,116.8z"/>
		
			<linearGradient id="SVGID_8_" gradientUnits="userSpaceOnUse" x1="159.5441" y1="182.7" x2="167.8022" y2="182.7" gradientTransform="matrix(1 0 0 -1 0 202)">
			<stop  offset="2.396490e-02" style="stop-color:#E7E8E9"/>
			<stop  offset="0.2091" style="stop-color:#E2E4E4"/>
			<stop  offset="0.4155" style="stop-color:#D5D7D8"/>
			<stop  offset="0.632" style="stop-color:#BFC1C3"/>
			<stop  offset="0.854" style="stop-color:#A0A3A7"/>
			<stop  offset="1" style="stop-color:#878C90"/>
		</linearGradient>
		<polygon class="st7" points="164.4,15.5 159.5,20.3 159.8,23.3 167.8,15.3 		"/>
	</g>
	
		<linearGradient id="SVGID_9_" gradientUnits="userSpaceOnUse" x1="120.2479" y1="84.1172" x2="81.4182" y2="146.2181" gradientTransform="matrix(1 0 0 -1 0 202)">
		<stop  offset="0" style="stop-color:#DBDCDE"/>
		<stop  offset="0.2941" style="stop-color:#D8DADB"/>
		<stop  offset="0.5121" style="stop-color:#CFD0D2"/>
		<stop  offset="0.7057" style="stop-color:#BFC1C3"/>
		<stop  offset="0.8839" style="stop-color:#A8ABAF"/>
		<stop  offset="1" style="stop-color:#95999D"/>
	</linearGradient>
	<polygon class="st8" points="31.3,83.2 168.7,83.2 174.5,85.1 174.9,85.5 25.1,85.5 25.5,85.1 	"/>
	
		<linearGradient id="SVGID_10_" gradientUnits="userSpaceOnUse" x1="120.1158" y1="54.6808" x2="82.8678" y2="115.4515" gradientTransform="matrix(1 0 0 -1 0 202)">
		<stop  offset="0" style="stop-color:#BBBDC0"/>
		<stop  offset="0.3326" style="stop-color:#B8BABD"/>
		<stop  offset="0.5792" style="stop-color:#AFB1B5"/>
		<stop  offset="0.7974" style="stop-color:#9FA2A6"/>
		<stop  offset="0.9991" style="stop-color:#888D91"/>
		<stop  offset="1" style="stop-color:#888D91"/>
	</linearGradient>
	<polygon class="st9" points="31.3,116.8 168.7,116.8 174.5,114.9 174.9,114.5 25.1,114.5 25.5,114.9 	"/>
	
		<linearGradient id="SVGID_11_" gradientUnits="userSpaceOnUse" x1="158.4736" y1="175.2343" x2="165.003" y2="186.5435" gradientTransform="matrix(1 0 0 -1 0 202)">
		<stop  offset="0.2054" style="stop-color:#DCDCDE"/>
		<stop  offset="0.4419" style="stop-color:#777C82"/>
		<stop  offset="0.755" style="stop-color:#5C6269"/>
		<stop  offset="1" style="stop-color:#40464D"/>
	</linearGradient>
	<polygon class="st10" points="164.4,15.5 159.5,20.3 159.8,23.3 167.8,15.3 	"/>
	
		<linearGradient id="SVGID_12_" gradientUnits="userSpaceOnUse" x1="176.7812" y1="165.55" x2="184.833" y2="165.55" gradientTransform="matrix(1 0 0 -1 0 202)">
		<stop  offset="0" style="stop-color:#777C82"/>
		<stop  offset="0.3074" style="stop-color:#5C6269"/>
		<stop  offset="0.6062" style="stop-color:#40464D"/>
	</linearGradient>
	<polygon class="st11" points="184.8,32.3 176.8,40.4 179.8,40.6 184.6,35.8 	"/>
	
		<linearGradient id="SVGID_13_" gradientUnits="userSpaceOnUse" x1="195.8101" y1="176.35" x2="198.1957" y2="176.35" gradientTransform="matrix(1 0 0 -1 0 202)">
		<stop  offset="0" style="stop-color:#777C82"/>
		<stop  offset="0.3074" style="stop-color:#5C6269"/>
		<stop  offset="1" style="stop-color:#40464D"/>
	</linearGradient>
	<polygon class="st12" points="195.9,4.2 195.9,47.2 198.2,49.4 198.2,1.9 	"/>
	
		<linearGradient id="SVGID_14_" gradientUnits="userSpaceOnUse" x1="150.6" y1="198.95" x2="198.2" y2="198.95" gradientTransform="matrix(1 0 0 -1 0 202)">
		<stop  offset="3.952520e-03" style="stop-color:#EEEEEF"/>
		<stop  offset="1" style="stop-color:#C5C7CA"/>
	</linearGradient>
	<polygon class="st13" points="198.2,1.9 150.6,1.9 152.9,4.2 195.9,4.2 	"/>
	
		<radialGradient id="SVGID_15_" cx="99.515" cy="98.2942" r="113.6588" gradientTransform="matrix(1 0 0 -1 0 202)" gradientUnits="userSpaceOnUse">
		<stop  offset="0.9448" style="stop-color:#2D353C"/>
		<stop  offset="0.9804" style="stop-color:#4E545B"/>
	</radialGradient>
	<path class="st14" d="M194.8,47.2c-2.8-5.1-6.1-10-9.8-14.5l-0.2-0.3l-0.2,3.5c3.2,4.3,6.2,8.8,8.8,13.7L194.8,47.2z"/>
	
		<linearGradient id="SVGID_16_" gradientUnits="userSpaceOnUse" x1="195.8589" y1="152.4499" x2="195.6566" y2="155.8526" gradientTransform="matrix(1 0 0 -1 0 202)">
		<stop  offset="0" style="stop-color:#2D353C"/>
		<stop  offset="0.8926" style="stop-color:#464C53"/>
		<stop  offset="1" style="stop-color:#494F56"/>
	</linearGradient>
	<polygon class="st15" points="195.9,47.2 194.8,47.2 193.5,49.4 198.2,49.4 	"/>
	
		<linearGradient id="SVGID_17_" gradientUnits="userSpaceOnUse" x1="149.5414" y1="195.3813" x2="152.4748" y2="199.4571" gradientTransform="matrix(1 0 0 -1 0 202)">
		<stop  offset="0" style="stop-color:#7C8186"/>
		<stop  offset="0.1342" style="stop-color:#82878C"/>
		<stop  offset="0.3173" style="stop-color:#94989C"/>
		<stop  offset="0.5284" style="stop-color:#B0B3B6"/>
		<stop  offset="0.7588" style="stop-color:#D8D9DB"/>
		<stop  offset="0.9474" style="stop-color:#FEFEFE"/>
	</linearGradient>
	<polygon class="st16" points="150.6,1.9 150.6,6.6 152.9,5.2 152.9,4.2 	"/>
	
		<radialGradient id="SVGID_18_" cx="99.1752" cy="98.3066" r="114.6384" gradientTransform="matrix(1 0 0 -1 0 202)" gradientUnits="userSpaceOnUse">
		<stop  offset="0.9528" style="stop-color:#2D353C"/>
		<stop  offset="0.96" style="stop-color:#3A4249"/>
		<stop  offset="0.9724" style="stop-color:#4E545B"/>
	</radialGradient>
	<path class="st17" d="M150.6,6.6c4.8,2.6,9.4,5.6,13.8,8.9l3.4-0.2l-0.3-0.2c-4.6-3.7-9.5-7-14.6-9.8L150.6,6.6z"/>
	<g>
		
			<linearGradient id="SVGID_19_" gradientUnits="userSpaceOnUse" x1="165.3491" y1="179.3608" x2="162.4256" y2="186.4253" gradientTransform="matrix(1 0 0 -1 0 202)">
			<stop  offset="0" style="stop-color:#FEFEFE"/>
			<stop  offset="0.3652" style="stop-color:#C5C8CA"/>
			<stop  offset="0.7435" style="stop-color:#919599"/>
			<stop  offset="0.9284" style="stop-color:#7C8186"/>
		</linearGradient>
		<polygon class="st18" points="168.3,15.2 159.8,23.8 159.7,22.8 167.3,15.3 		"/>
		
			<linearGradient id="SVGID_20_" gradientUnits="userSpaceOnUse" x1="180.108" y1="166.3442" x2="181.627" y2="165.1269" gradientTransform="matrix(1 0 0 -1 0 202)">
			<stop  offset="3.341080e-02" style="stop-color:#656A70"/>
			<stop  offset="0.9906" style="stop-color:#434A51"/>
		</linearGradient>
		<polygon class="st19" points="184.8,32.8 177.2,40.4 176.3,40.3 184.9,31.8 		"/>
		
			<radialGradient id="SVGID_21_" cx="100.0608" cy="100.9285" r="111.8044" gradientTransform="matrix(1 0 0 -1 0 202)" gradientUnits="userSpaceOnUse">
			<stop  offset="0.9587" style="stop-color:#6E7379"/>
			<stop  offset="0.9706" style="stop-color:#595F65"/>
			<stop  offset="0.972" style="stop-color:#61666C"/>
			<stop  offset="0.9862" style="stop-color:#AEB1B4"/>
		</radialGradient>
		<path class="st20" d="M194.6,47.5c-2.9-5.1-6.1-10-9.8-14.7l0.1-1.1c3.8,4.8,7.2,9.8,10.2,15L194.6,47.5z"/>
		
			<linearGradient id="SVGID_22_" gradientUnits="userSpaceOnUse" x1="195.4067" y1="155.253" x2="195.3988" y2="154.3645" gradientTransform="matrix(1 0 0 -1 0 202)">
			<stop  offset="0" style="stop-color:#A2A5A9"/>
			<stop  offset="1" style="stop-color:#595F65"/>
		</linearGradient>
		<polygon class="st21" points="196.2,47.5 194.6,47.5 195,46.8 195.5,46.8 		"/>
		
			<linearGradient id="SVGID_23_" gradientUnits="userSpaceOnUse" x1="195.5226" y1="176.35" x2="196.2301" y2="176.35" gradientTransform="matrix(1 0 0 -1 0 202)">
			<stop  offset="0" style="stop-color:#AEB1B4"/>
			<stop  offset="0.5262" style="stop-color:#9EA2A5"/>
			<stop  offset="1" style="stop-color:#95999D"/>
		</linearGradient>
		<polygon class="st22" points="196.2,3.8 196.2,47.5 195.5,46.8 195.5,4.5 		"/>
		
			<linearGradient id="SVGID_24_" gradientUnits="userSpaceOnUse" x1="174.35" y1="199.2468" x2="174.35" y2="197.2399" gradientTransform="matrix(1 0 0 -1 0 202)">
			<stop  offset="0.276" style="stop-color:#D6D7D9"/>
			<stop  offset="0.4078" style="stop-color:#E1E2E3"/>
			<stop  offset="0.6381" style="stop-color:#FEFEFE"/>
			<stop  offset="0.6395" style="stop-color:#FEFEFE"/>
		</linearGradient>
		<polygon class="st23" points="195.5,4.5 153.2,4.5 152.5,3.8 196.2,3.8 		"/>
		
			<linearGradient id="SVGID_25_" gradientUnits="userSpaceOnUse" x1="152.8454" y1="198.0662" x2="152.8545" y2="196.0718" gradientTransform="matrix(1 0 0 -1 0 202)">
			<stop  offset="0" style="stop-color:#E2E3E4"/>
			<stop  offset="0.2573" style="stop-color:#DFE0E1"/>
			<stop  offset="0.4742" style="stop-color:#D4D6D7"/>
			<stop  offset="0.6764" style="stop-color:#C3C5C7"/>
			<stop  offset="0.8687" style="stop-color:#AAAEB1"/>
			<stop  offset="1" style="stop-color:#95999D"/>
		</linearGradient>
		<polygon class="st24" points="153.2,4.5 153.2,5 152.5,5.4 152.5,3.8 		"/>
		
			<radialGradient id="SVGID_26_" cx="98.645" cy="100.2613" r="111.7868" gradientTransform="matrix(1 0 0 -1 0 202)" gradientUnits="userSpaceOnUse">
			<stop  offset="0.7746" style="stop-color:#71767B"/>
			<stop  offset="0.9548" style="stop-color:#AEB1B4"/>
			<stop  offset="0.9908" style="stop-color:#BBBDC0"/>
		</radialGradient>
		<path class="st25" d="M153.2,5c5.3,3,10.3,6.4,15.1,10.3l-1.1,0.1c-4.7-3.7-9.6-7-14.7-9.9L153.2,5z"/>
		<g>
			
				<radialGradient id="SVGID_27_" cx="124.1878" cy="19.9542" r="172.1532" fx="-47.9075" fy="24.4174" gradientTransform="matrix(1 0 0 -1 0 202)" gradientUnits="userSpaceOnUse">
				<stop  offset="0.4469" style="stop-color:#FFFFFF"/>
				<stop  offset="0.5507" style="stop-color:#FCFCFC"/>
				<stop  offset="0.6267" style="stop-color:#F3F3F4"/>
				<stop  offset="0.6938" style="stop-color:#E3E4E5"/>
				<stop  offset="0.7557" style="stop-color:#CCCED0"/>
				<stop  offset="0.8142" style="stop-color:#AFB2B5"/>
				<stop  offset="0.87" style="stop-color:#8B9094"/>
				<stop  offset="0.9238" style="stop-color:#61676C"/>
				<stop  offset="0.9747" style="stop-color:#313940"/>
				<stop  offset="0.9788" style="stop-color:#2D353C"/>
			</radialGradient>
			<path class="st26" d="M24.7,85.8c2.8-15.1,10.1-29,21.1-40C60.3,31.3,79.5,23.4,100,23.4s39.7,8,54.2,22.4
				c11.1,11.1,18.3,25,21.1,40l-0.9-0.7c-2.9-14.6-10-28.1-20.8-38.8C139.3,32,120.3,24.1,100,24.1S60.6,32,46.3,46.3
				C35.5,57.1,28.4,70.5,25.5,85.1L24.7,85.8z M174.5,114.9c-2.9,14.6-10,28.1-20.8,38.8c-14.3,14.3-33.4,22.2-53.7,22.2
				s-39.3-7.9-53.7-22.2c-10.8-10.8-17.9-24.2-20.8-38.8l-0.9-0.7c2.8,15.1,10.1,29,21.1,40c14.5,14.5,33.7,22.4,54.2,22.4
				s39.7-8,54.2-22.4c11.1-11.1,18.3-25,21.1-40L174.5,114.9z"/>
			<g>
				<g>
					
						<linearGradient id="SVGID_28_" gradientUnits="userSpaceOnUse" x1="100" y1="87.1379" x2="100" y2="87.8454" gradientTransform="matrix(1 0 0 -1 0 202)">
						<stop  offset="0" style="stop-color:#434A51"/>
						<stop  offset="8.492142e-02" style="stop-color:#50575D"/>
						<stop  offset="0.5194" style="stop-color:#919599"/>
						<stop  offset="0.8362" style="stop-color:#B9BBBE"/>
						<stop  offset="1" style="stop-color:#C8CACC"/>
					</linearGradient>
					<polygon class="st27" points="24.7,114.2 175.3,114.2 174.5,114.9 25.5,114.9 					"/>
				</g>
			</g>
			<g>
				<g>
					
						<linearGradient id="SVGID_29_" gradientUnits="userSpaceOnUse" x1="100" y1="116.862" x2="100" y2="116.1544" gradientTransform="matrix(1 0 0 -1 0 202)">
						<stop  offset="0.276" style="stop-color:#A2A5A9"/>
						<stop  offset="0.4007" style="stop-color:#B9BBBE"/>
						<stop  offset="0.644" style="stop-color:#E1E1E3"/>
						<stop  offset="0.7704" style="stop-color:#F0F0F1"/>
					</linearGradient>
					<polygon class="st28" points="175.3,85.8 24.7,85.8 25.5,85.1 174.5,85.1 					"/>
				</g>
			</g>
			
				<linearGradient id="SVGID_30_" gradientUnits="userSpaceOnUse" x1="83.5425" y1="191.7487" x2="118.3383" y2="-14.0655" gradientTransform="matrix(1 4.595593e-03 4.290933e-03 -0.9337 -1.3208 182.492)">
				<stop  offset="0" style="stop-color:#FEFEFE"/>
				<stop  offset="0.3882" style="stop-color:#FBFBFB"/>
				<stop  offset="0.6299" style="stop-color:#C8CACC"/>
				<stop  offset="0.7648" style="stop-color:#84898D"/>
				<stop  offset="0.9014" style="stop-color:#595F64"/>
				<stop  offset="0.925" style="stop-color:#3F464D"/>
			</linearGradient>
			<path class="st29" d="M176.3,40.3c13.3,17,20.6,37.8,20.6,59.7c0,25.9-10.1,50.2-28.4,68.5s-42.6,28.4-68.5,28.4
				s-50.2-10.1-68.5-28.4S3.1,125.9,3.1,100s10.1-50.2,28.4-68.5S74.1,3.1,100,3.1c22,0,42.8,7.3,59.8,20.6l-0.1-0.9
				C142.7,9.6,121.9,2.4,100,2.4C73.9,2.4,49.4,12.6,31,31S2.4,73.9,2.4,100s10.1,50.6,28.6,69c18.4,18.4,42.9,28.6,69,28.6
				s50.6-10.1,69-28.6c18.4-18.4,28.6-42.9,28.6-69c0-21.9-7.1-42.6-20.3-59.6L176.3,40.3z"/>
		</g>
	</g>
	<path id="Text_Face_2_" class="st30" d="M158.1,109.7c-8.1,0-13.1-3.7-13.1-9.7c0-5.8,5.1-9.5,13-9.5s13.1,3.7,13.1,9.5
		C171.1,106,166.2,109.7,158.1,109.7z M158,107.1c3.5,0,4.8-3.8,4.8-7c0.1-4.1-1.8-7-4.6-7h-0.1c-2.8,0-4.8,2.8-4.9,6.9
		C153.2,103.4,154.7,107,158,107.1L158,107.1z M75.4,109.7c-8.1,0-13.1-3.7-13.1-9.7c0-5.8,5.1-9.5,13-9.5s13.1,3.7,13.1,9.5
		C88.4,106,83.4,109.7,75.4,109.7z M75.3,107.1c3.5,0,4.8-3.8,4.8-7c0-1.9-0.4-3.6-1.1-4.8c-0.8-1.4-2.1-2.2-3.5-2.2h-0.1
		c-2.8,0-4.8,2.8-4.9,6.9C70.5,103.4,71.9,107,75.3,107.1L75.3,107.1z M132.9,109.1h-9.1l-8.7-15.8H111v-2.5h18.3v2.5h-4.7l6.6,12.1
		l6.4-11.8l0.1-0.3h-3.8v-2.5h12.5v2.5h-4.2l-8.5,15.8L132.9,109.1L132.9,109.1L132.9,109.1z M50.2,109.1h-9.1l-8.7-15.8h-4.2v-2.5
		h18.3v2.5h-4.6l6.6,12.1l6.5-12h-3.8v-2.5h12.5v2.5h-4.2L51,109.2L50.2,109.1L50.2,109.1L50.2,109.1z M89.9,106.6h4.3V93.3h-4.3
		v-2.5h16.8v2.5h-4.3v13.3h4.4c3.6,0,6-2.4,6-5.7h2.4v8.2H89.8v-2.5H89.9z"/>
</g>
</svg>
